<svg width="188" height="35" viewBox="0 0 188 35" fill="none" xmlns="http://www.w3.org/2000/svg">
<path d="M15.544 0.680683V1.15924C13.9901 3.06039 14.3626 5.86643 16.7205 11.6003L21.5979 23.4901L24.0488 17.3081C24.5552 16.0769 24.9856 14.8221 25.338 13.5493L23.5292 9.14667C22.0832 5.62715 20.044 2.34691 18.6518 1.15924V0.680683H34.1958V1.15924C32.6419 3.06039 33.0145 5.86643 35.3723 11.6003L40.2742 23.4901L42.7252 17.3081C46.1565 8.69858 45.0291 2.6558 43.7987 1.13749V0.658936H52.2692V1.13749C50.1761 2.6558 46.9065 8.84214 44.5487 14.8327L36.936 33.9747H33.7203L25.8772 14.8327L18.2646 33.9747H15.0489L4.90192 9.14667C3.43135 5.62715 1.41666 2.34691 0 1.15924V0.680683H15.544Z" fill="#A18EE8"/>
<path d="M54.5683 21.6497C57.5879 25.7566 62.5731 28.9846 67.9554 26.1307C70.2985 24.8865 72.2789 22.7243 72.0436 20.2445L72.5338 20.3577C73.3917 25.0605 70.9309 29.4719 65.8672 32.1561C59.0584 35.767 51.4702 34.1443 47.4017 28.1015C43.0242 21.6106 45.9801 14.776 51.7301 11.7264C58.4457 8.16333 65.1515 11.809 67.377 14.8369L54.5683 21.6497ZM59.5829 18.4347C58.0829 14.6281 54.0536 11.0607 52.3036 11.9874C50.6516 12.8575 51.632 17.3863 54.2938 21.2408L59.5829 18.4347Z" fill="#A18EE8"/>
<path d="M130.759 21.6497C133.773 25.7565 138.764 28.9846 144.146 26.1307C146.489 24.8864 148.469 22.7243 148.234 20.2445L148.749 20.3576C149.607 25.0605 147.146 29.4718 142.082 32.1561C135.273 35.7669 127.685 34.1442 123.617 28.1014C119.239 21.6105 122.195 14.7673 127.94 11.722C134.656 8.15893 141.362 11.8046 143.587 14.8325L130.759 21.6497ZM135.783 18.4347C134.283 14.6281 130.254 11.0607 128.504 11.9873C126.847 12.8574 127.832 17.3863 130.494 21.2408L135.783 18.4347Z" fill="#A18EE8"/>
<path d="M73.4063 33.979V33.5048C74.2102 32.4563 74.5877 29.1282 74.5877 22.2763V11.8134C74.5877 3.54755 74.2641 1.63335 72.7642 1.53764V1.06344C75.122 0.110689 80.3131 0.110689 82.6219 1.06344V22.2763C82.6219 29.1282 82.9945 32.4563 83.7984 33.5048V33.979H73.4063Z" fill="#A18EE8"/>
<path d="M85.4405 33.979V33.5048C86.2444 32.4563 86.6219 29.1282 86.6219 22.2763V11.8134C86.6219 3.54755 86.2983 1.63335 84.7983 1.53764V1.06344C87.1562 0.110689 92.3473 0.110689 94.6512 1.06344V22.2763C94.6512 29.1282 95.0287 32.4563 95.8326 33.5048V33.979H85.4405Z" fill="#A18EE8"/>
<path d="M120.097 22.2763C120.097 29.1283 120.474 32.4564 121.278 33.5048V33.979H110.906V33.5048C111.71 32.4564 112.087 29.1283 112.087 22.2763V18.1869C112.087 15.9029 111.71 14.0365 110.318 14.0365C108.926 14.0365 106.994 15.9507 106.994 21.28V22.2763C106.994 29.1283 107.367 32.4564 108.171 33.5048V33.979H97.7344V33.5048C98.5384 32.4564 98.9158 29.1283 98.9158 22.2763V21.8413C98.9158 13.5754 98.5923 11.6612 97.0923 11.5655V11.0913C99.4501 10.1385 104.69 10.1385 106.994 11.0913V15.855C108.171 11.8135 111.764 10.0994 114.764 10.0994C119.107 10.0994 120.102 13.5797 120.102 18.2826L120.097 22.2763Z" fill="#A18EE8"/>
<path d="M162.455 30.4594C162.455 25.5608 149.484 25.0344 149.484 17.8431C149.484 13.4665 154.308 10.0906 161.278 10.0906C167.817 10.0906 171.46 13.0402 171.94 16.0377L163.901 18.9394C167.44 14.6586 165.455 10.5648 161.974 10.5648C159.724 10.5648 158.489 12.3267 158.489 14.0451C158.489 19.7007 171.994 19.9879 171.994 26.9834C171.994 31.4992 166.366 34.4009 160.097 34.4009C154.362 34.4009 149.43 31.9777 148.823 28.4582L156.862 25.5564C153.754 29.3109 155.734 33.9267 158.822 33.9267C160.739 33.9311 162.455 32.217 162.455 30.4594Z" fill="#A18EE8"/>
<path d="M187.253 27.3184C186.503 31.0771 184.611 34.0746 179.41 34.0746C175.602 34.0746 174.018 31.0293 174.018 26.7006V13.4621C174.018 11.8481 173.803 11.3217 172.842 10.8954V10.0862C175.842 9.75555 180.744 5.22672 182.567 0.567383H183.102V10.0862H187.253V10.7953H183.126V25.452C183.126 30.5899 185.822 28.4973 186.93 26.879L187.253 27.3184Z" fill="#A18EE8"/>
</svg>
