<svg width="40" height="41" viewBox="0 0 40 41" fill="none" xmlns="http://www.w3.org/2000/svg">
<mask id="path-1-inside-1_118_362" fill="white">
<path d="M6.05469 4.08299C5.96875 4.12986 4.84375 5.72361 3.57031 7.63767L1.24219 11.1142L1.26562 13.1611L1.28906 15.208L1.53906 15.7392C1.96875 16.6377 2.74219 17.333 3.65625 17.6299L4.0625 17.7627V25.2158V32.6689H3.16406C2.52344 32.6689 2.19531 32.7002 2.03906 32.7783C1.75781 32.9267 1.34375 33.3955 1.28125 33.6377C1.25781 33.7392 1.25 34.3642 1.26562 35.0283C1.28906 36.2158 1.29688 36.2392 1.50781 36.5205C1.625 36.6845 1.83594 36.872 1.97656 36.9502C2.21094 37.0752 3.20312 37.083 19.0234 37.1064C30.9766 37.122 35.9062 37.1064 36.1172 37.0439C36.5234 36.9267 36.9141 36.5517 37.0703 36.1533C37.1797 35.8799 37.1953 35.5986 37.1719 34.7236C37.1484 33.6845 37.1406 33.6142 36.9297 33.3095C36.5859 32.7861 36.2656 32.6689 35.1953 32.6689H34.2969V32.2236C34.2969 31.8252 34.3516 31.6767 34.9375 30.5674C35.4922 29.5049 35.6641 29.2471 36.2812 28.583C37.0781 27.7236 37.1719 27.583 37.2422 27.083C37.3203 26.4892 37.125 26.1299 36.2812 25.333C35.875 24.9502 35.5469 24.6221 35.5469 24.5908C35.5469 24.5674 36.2031 23.8408 37 22.9658C37.8047 22.0986 38.5234 21.2392 38.6016 21.0674C38.7969 20.6455 38.7969 19.8408 38.6016 19.4267C38.2891 18.747 37.625 18.3486 36.8203 18.3486C36.1641 18.3564 35.7344 18.6142 34.9297 19.4814L34.2969 20.1689V18.9658V17.7549L34.7188 17.6377C35.6641 17.3642 36.5703 16.497 36.9609 15.497C37.125 15.083 37.1406 14.9033 37.1719 13.1299L37.2031 11.208L34.8516 7.68455C33.5625 5.74705 32.4375 4.12205 32.3516 4.08299C32.1484 3.9658 6.28125 3.97361 6.05469 4.08299ZM9.44531 5.69236C9.35938 5.9033 8.82031 7.10642 8.25781 8.37205L7.22656 10.6767L5.17188 10.7002L3.125 10.7158L4.9375 8.02049L6.75 5.32517H8.17969H9.60156L9.44531 5.69236ZM18.5156 8.02049V10.7158H16.4062C14.6719 10.7158 14.2969 10.7002 14.2969 10.6064C14.2969 10.5049 15.3516 5.73924 15.4375 5.45799C15.4766 5.3408 15.6172 5.32517 17 5.32517H18.5156V8.02049ZM28.4766 7.95017C29.125 9.39549 29.6641 10.6064 29.6719 10.6455C29.6875 10.6845 28.7812 10.7158 27.6016 10.7158H25.5L24.9297 8.11424C24.6094 6.69236 24.3359 5.47361 24.3203 5.41892C24.2891 5.34861 24.6172 5.32517 25.7891 5.32517H27.3047L28.4766 7.95017ZM12.7344 13.3955V14.7549L12.4922 15.2392C11.6406 16.9345 9.28125 16.8486 8.49219 15.0986C8.35156 14.7939 8.32031 14.5361 8.29688 13.3877L8.26562 12.0439H10.5H12.7344V13.3955ZM24.2969 13.2783C24.2969 14.7861 24.2109 15.1455 23.7109 15.7002C23.2188 16.247 22.7656 16.4502 22.0703 16.4502C21.2031 16.4502 20.5156 16.0127 20.0938 15.208C19.8984 14.833 19.8828 14.747 19.8594 13.4267L19.8281 12.0439H22.0625H24.2969V13.2783ZM35.8438 13.4267C35.8203 14.7002 35.7969 14.8486 35.6328 15.1689C35.2031 16.0049 34.5078 16.4502 33.6328 16.4502C32.9609 16.4424 32.625 16.3095 32.1172 15.833C31.5078 15.2627 31.4062 14.9033 31.4062 13.333V12.0439H33.6406H35.875L35.8438 13.4267ZM14.7031 17.4267C16.0469 18.0986 17.7031 17.8408 18.7734 16.7939L19.2031 16.3799L19.6094 16.7861C20.9375 18.1299 23.2266 18.1377 24.5547 16.7939L24.9609 16.3799L25.3672 16.7861C26.7344 18.1377 28.9844 18.1377 30.3359 16.7783L30.7344 16.3799L31.1328 16.7783C31.5469 17.2002 32.0625 17.497 32.6406 17.6689L32.9688 17.7705V19.6845C32.9688 21.5439 32.9609 21.6064 32.8047 21.7861L32.6328 21.958L32.0156 21.3955C31.1875 20.6377 30.9688 20.497 30.5859 20.4345C29.9141 20.3408 29.6562 20.4814 28.6719 21.4892L27.7734 22.4111L24.5547 24.4189C21.6328 26.2392 21.3281 26.4502 21.25 26.6924C21.1797 26.8955 21.1875 27.0049 21.2656 27.1533C21.3281 27.2705 22.3516 28.2549 23.5547 29.3642C24.7578 30.4658 26.0625 31.6611 26.4453 32.0205L27.1484 32.6689H21.5469H15.9375L15.9219 27.0517L15.8984 21.4346L15.6562 21.1299C15.1719 20.5283 15.1562 20.5205 12 20.497C10.1875 20.4814 9.0625 20.5049 8.80469 20.5595C8.32031 20.6611 7.9375 20.9424 7.73438 21.3408C7.58594 21.6377 7.57812 21.8096 7.57812 27.1611V32.6689H6.48438H5.39062V25.2158V17.7627L5.64844 17.708C6.125 17.6064 6.72656 17.2627 7.19531 16.833L7.65625 16.3955L8.10938 16.8252C8.91406 17.5908 10 17.9424 11.0625 17.7627C11.7969 17.6377 12.625 17.2236 13.0547 16.747L13.3984 16.372L13.8281 16.7861C14.0625 17.0205 14.4531 17.3095 14.7031 17.4267ZM33.1562 24.2861C34.6875 25.6846 35.9375 26.8642 35.9375 26.9033C35.9375 26.9424 35.7109 27.2158 35.4375 27.5049L34.9297 28.0439L32.25 25.583C30.7734 24.2314 29.5 23.0596 29.4219 22.9814C29.2734 22.8408 29.2812 22.8252 29.7578 22.2861C30.0312 21.9814 30.2812 21.7314 30.3125 21.7314C30.3516 21.7314 31.625 22.8799 33.1562 24.2861ZM31.2109 26.4658L34.1406 29.1611L32.7578 31.872C32 33.3642 31.3672 34.5986 31.3594 34.6142C31.3281 34.6533 30.9609 34.3408 30.2578 33.6845L29.6953 33.1533L30.3047 32.3486C30.6406 31.9033 30.9531 31.458 31 31.3642C31.25 30.9111 30.9453 30.4033 30.4219 30.4033C30.0938 30.4033 29.9531 30.5361 29.2031 31.5361C28.9375 31.9033 28.6953 32.2002 28.6719 32.2002C28.6484 32.1924 28.4062 31.9892 28.1406 31.7392L27.6406 31.2939L28.3516 30.5205C28.9375 29.8799 29.0625 29.7002 29.0625 29.497C29.0625 29.1377 28.9922 29.0049 28.7422 28.8799C28.3203 28.6611 28.2109 28.7158 27.4062 29.5517L26.6562 30.3486L26.1406 29.8955C25.8594 29.6533 25.625 29.4345 25.625 29.4267C25.625 29.4111 26.2266 28.8721 26.9609 28.2158C27.6953 27.5517 28.3281 26.9346 28.3672 26.8252C28.5156 26.4346 28.1875 25.9502 27.7734 25.9502C27.4688 25.9502 27.3984 26.0049 25.8672 27.3721C25.2109 27.9658 24.6484 28.4502 24.6172 28.4502C24.5547 28.4502 23.0781 27.0986 23.0547 27.0205C23.0391 26.9502 28.1016 23.7627 28.2188 23.7627C28.25 23.7627 29.6016 24.9736 31.2109 26.4658ZM14.1016 26.8486C14.5156 27.2549 14.25 28.0596 13.7109 28.0596C13.3672 28.0596 13.125 27.7627 13.125 27.3408C13.125 26.9736 13.3984 26.6533 13.7109 26.6533C13.8203 26.6533 14 26.7392 14.1016 26.8486ZM29.5703 34.8955L30.5078 35.7861L16.5938 35.7939C5.88281 35.7939 2.66406 35.7705 2.59375 35.7002C2.49219 35.5986 2.46094 34.3486 2.54688 34.122C2.59375 34.0049 3.8125 33.997 15.6172 33.997L28.6328 34.0049L29.5703 34.8955ZM35.8203 34.8955V35.7549L34.0391 35.7783L32.2656 35.7939L32.7109 34.8955L33.1641 33.997L34.4922 34.0127L35.8203 34.0361V34.8955Z"/>
</mask>
<path d="M6.05469 4.08299C5.96875 4.12986 4.84375 5.72361 3.57031 7.63767L1.24219 11.1142L1.26562 13.1611L1.28906 15.208L1.53906 15.7392C1.96875 16.6377 2.74219 17.333 3.65625 17.6299L4.0625 17.7627V25.2158V32.6689H3.16406C2.52344 32.6689 2.19531 32.7002 2.03906 32.7783C1.75781 32.9267 1.34375 33.3955 1.28125 33.6377C1.25781 33.7392 1.25 34.3642 1.26562 35.0283C1.28906 36.2158 1.29688 36.2392 1.50781 36.5205C1.625 36.6845 1.83594 36.872 1.97656 36.9502C2.21094 37.0752 3.20312 37.083 19.0234 37.1064C30.9766 37.122 35.9062 37.1064 36.1172 37.0439C36.5234 36.9267 36.9141 36.5517 37.0703 36.1533C37.1797 35.8799 37.1953 35.5986 37.1719 34.7236C37.1484 33.6845 37.1406 33.6142 36.9297 33.3095C36.5859 32.7861 36.2656 32.6689 35.1953 32.6689H34.2969V32.2236C34.2969 31.8252 34.3516 31.6767 34.9375 30.5674C35.4922 29.5049 35.6641 29.2471 36.2812 28.583C37.0781 27.7236 37.1719 27.583 37.2422 27.083C37.3203 26.4892 37.125 26.1299 36.2812 25.333C35.875 24.9502 35.5469 24.6221 35.5469 24.5908C35.5469 24.5674 36.2031 23.8408 37 22.9658C37.8047 22.0986 38.5234 21.2392 38.6016 21.0674C38.7969 20.6455 38.7969 19.8408 38.6016 19.4267C38.2891 18.747 37.625 18.3486 36.8203 18.3486C36.1641 18.3564 35.7344 18.6142 34.9297 19.4814L34.2969 20.1689V18.9658V17.7549L34.7188 17.6377C35.6641 17.3642 36.5703 16.497 36.9609 15.497C37.125 15.083 37.1406 14.9033 37.1719 13.1299L37.2031 11.208L34.8516 7.68455C33.5625 5.74705 32.4375 4.12205 32.3516 4.08299C32.1484 3.9658 6.28125 3.97361 6.05469 4.08299ZM9.44531 5.69236C9.35938 5.9033 8.82031 7.10642 8.25781 8.37205L7.22656 10.6767L5.17188 10.7002L3.125 10.7158L4.9375 8.02049L6.75 5.32517H8.17969H9.60156L9.44531 5.69236ZM18.5156 8.02049V10.7158H16.4062C14.6719 10.7158 14.2969 10.7002 14.2969 10.6064C14.2969 10.5049 15.3516 5.73924 15.4375 5.45799C15.4766 5.3408 15.6172 5.32517 17 5.32517H18.5156V8.02049ZM28.4766 7.95017C29.125 9.39549 29.6641 10.6064 29.6719 10.6455C29.6875 10.6845 28.7812 10.7158 27.6016 10.7158H25.5L24.9297 8.11424C24.6094 6.69236 24.3359 5.47361 24.3203 5.41892C24.2891 5.34861 24.6172 5.32517 25.7891 5.32517H27.3047L28.4766 7.95017ZM12.7344 13.3955V14.7549L12.4922 15.2392C11.6406 16.9345 9.28125 16.8486 8.49219 15.0986C8.35156 14.7939 8.32031 14.5361 8.29688 13.3877L8.26562 12.0439H10.5H12.7344V13.3955ZM24.2969 13.2783C24.2969 14.7861 24.2109 15.1455 23.7109 15.7002C23.2188 16.247 22.7656 16.4502 22.0703 16.4502C21.2031 16.4502 20.5156 16.0127 20.0938 15.208C19.8984 14.833 19.8828 14.747 19.8594 13.4267L19.8281 12.0439H22.0625H24.2969V13.2783ZM35.8438 13.4267C35.8203 14.7002 35.7969 14.8486 35.6328 15.1689C35.2031 16.0049 34.5078 16.4502 33.6328 16.4502C32.9609 16.4424 32.625 16.3095 32.1172 15.833C31.5078 15.2627 31.4062 14.9033 31.4062 13.333V12.0439H33.6406H35.875L35.8438 13.4267ZM14.7031 17.4267C16.0469 18.0986 17.7031 17.8408 18.7734 16.7939L19.2031 16.3799L19.6094 16.7861C20.9375 18.1299 23.2266 18.1377 24.5547 16.7939L24.9609 16.3799L25.3672 16.7861C26.7344 18.1377 28.9844 18.1377 30.3359 16.7783L30.7344 16.3799L31.1328 16.7783C31.5469 17.2002 32.0625 17.497 32.6406 17.6689L32.9688 17.7705V19.6845C32.9688 21.5439 32.9609 21.6064 32.8047 21.7861L32.6328 21.958L32.0156 21.3955C31.1875 20.6377 30.9688 20.497 30.5859 20.4345C29.9141 20.3408 29.6562 20.4814 28.6719 21.4892L27.7734 22.4111L24.5547 24.4189C21.6328 26.2392 21.3281 26.4502 21.25 26.6924C21.1797 26.8955 21.1875 27.0049 21.2656 27.1533C21.3281 27.2705 22.3516 28.2549 23.5547 29.3642C24.7578 30.4658 26.0625 31.6611 26.4453 32.0205L27.1484 32.6689H21.5469H15.9375L15.9219 27.0517L15.8984 21.4346L15.6562 21.1299C15.1719 20.5283 15.1562 20.5205 12 20.497C10.1875 20.4814 9.0625 20.5049 8.80469 20.5595C8.32031 20.6611 7.9375 20.9424 7.73438 21.3408C7.58594 21.6377 7.57812 21.8096 7.57812 27.1611V32.6689H6.48438H5.39062V25.2158V17.7627L5.64844 17.708C6.125 17.6064 6.72656 17.2627 7.19531 16.833L7.65625 16.3955L8.10938 16.8252C8.91406 17.5908 10 17.9424 11.0625 17.7627C11.7969 17.6377 12.625 17.2236 13.0547 16.747L13.3984 16.372L13.8281 16.7861C14.0625 17.0205 14.4531 17.3095 14.7031 17.4267ZM33.1562 24.2861C34.6875 25.6846 35.9375 26.8642 35.9375 26.9033C35.9375 26.9424 35.7109 27.2158 35.4375 27.5049L34.9297 28.0439L32.25 25.583C30.7734 24.2314 29.5 23.0596 29.4219 22.9814C29.2734 22.8408 29.2812 22.8252 29.7578 22.2861C30.0312 21.9814 30.2812 21.7314 30.3125 21.7314C30.3516 21.7314 31.625 22.8799 33.1562 24.2861ZM31.2109 26.4658L34.1406 29.1611L32.7578 31.872C32 33.3642 31.3672 34.5986 31.3594 34.6142C31.3281 34.6533 30.9609 34.3408 30.2578 33.6845L29.6953 33.1533L30.3047 32.3486C30.6406 31.9033 30.9531 31.458 31 31.3642C31.25 30.9111 30.9453 30.4033 30.4219 30.4033C30.0938 30.4033 29.9531 30.5361 29.2031 31.5361C28.9375 31.9033 28.6953 32.2002 28.6719 32.2002C28.6484 32.1924 28.4062 31.9892 28.1406 31.7392L27.6406 31.2939L28.3516 30.5205C28.9375 29.8799 29.0625 29.7002 29.0625 29.497C29.0625 29.1377 28.9922 29.0049 28.7422 28.8799C28.3203 28.6611 28.2109 28.7158 27.4062 29.5517L26.6562 30.3486L26.1406 29.8955C25.8594 29.6533 25.625 29.4345 25.625 29.4267C25.625 29.4111 26.2266 28.8721 26.9609 28.2158C27.6953 27.5517 28.3281 26.9346 28.3672 26.8252C28.5156 26.4346 28.1875 25.9502 27.7734 25.9502C27.4688 25.9502 27.3984 26.0049 25.8672 27.3721C25.2109 27.9658 24.6484 28.4502 24.6172 28.4502C24.5547 28.4502 23.0781 27.0986 23.0547 27.0205C23.0391 26.9502 28.1016 23.7627 28.2188 23.7627C28.25 23.7627 29.6016 24.9736 31.2109 26.4658ZM14.1016 26.8486C14.5156 27.2549 14.25 28.0596 13.7109 28.0596C13.3672 28.0596 13.125 27.7627 13.125 27.3408C13.125 26.9736 13.3984 26.6533 13.7109 26.6533C13.8203 26.6533 14 26.7392 14.1016 26.8486ZM29.5703 34.8955L30.5078 35.7861L16.5938 35.7939C5.88281 35.7939 2.66406 35.7705 2.59375 35.7002C2.49219 35.5986 2.46094 34.3486 2.54688 34.122C2.59375 34.0049 3.8125 33.997 15.6172 33.997L28.6328 34.0049L29.5703 34.8955ZM35.8203 34.8955V35.7549L34.0391 35.7783L32.2656 35.7939L32.7109 34.8955L33.1641 33.997L34.4922 34.0127L35.8203 34.0361V34.8955Z" fill="#FFB685" stroke="black" stroke-width="4" mask="url(#path-1-inside-1_118_362)"/>
<path d="M26.2203 21.5634C26.2207 21.5633 26.2154 21.5622 26.2031 21.5606C26.2137 21.5627 26.2199 21.5635 26.2203 21.5634Z" fill="#FFB685" stroke="black" stroke-width="2"/>
<path d="M31.0898 29.7021C31.0899 29.7029 31.09 29.7036 31.0901 29.7044C31.0903 29.7058 31.0907 29.7076 31.0912 29.7097C31.0981 29.7392 31.1282 29.8306 31.2282 29.9127C31.307 29.9774 31.3761 29.9925 31.3996 29.996C31.4017 29.9957 31.404 29.9954 31.4064 29.995C31.4176 29.9932 31.4325 29.9903 31.4502 29.9857L31.4374 29.6543L31.4372 29.6493L31.435 29.5918L31.4064 29.5689L31.1904 29.3961C31.1898 29.3968 31.1892 29.3974 31.1887 29.3981C31.1014 29.4991 31.0789 29.6193 31.0898 29.7021ZM31.3836 29.9977C31.3837 29.9977 31.3853 29.9976 31.3883 29.9974C31.3851 29.9975 31.3836 29.9976 31.3836 29.9977ZM31.4446 29.6531L31.4535 29.9848C31.4782 29.9782 31.5082 29.9684 31.5411 29.9538C31.6542 29.9035 31.7166 29.8359 31.7263 29.8248L31.5005 29.6442L31.4957 29.6404L31.4432 29.5983L31.4445 29.6482L31.4446 29.6531ZM31.4064 29.5612L31.4347 29.5834L31.4227 29.2712C31.4178 29.2714 31.4123 29.2718 31.4064 29.2726C31.3554 29.2789 31.269 29.3075 31.1925 29.3937L31.4064 29.5612ZM31.443 29.5898L31.5056 29.6389L31.5103 29.6426L31.7327 29.8168C31.7628 29.7784 31.7939 29.697 31.7816 29.5992C31.7815 29.5984 31.7814 29.5977 31.7813 29.5969C31.7765 29.5607 31.7658 29.5224 31.7469 29.4831C31.7146 29.4161 31.6628 29.3584 31.598 29.3193C31.5311 29.279 31.4696 29.2699 31.4345 29.2708L31.443 29.5898Z" fill="#FFB685" stroke="black" stroke-width="2"/>
</svg>
