<svg width="372" height="237" viewBox="0 0 372 237" fill="none" xmlns="http://www.w3.org/2000/svg">
<path d="M110.627 0.154702V3.55901C99.5675 17.0833 102.219 37.0448 119 77.8343L153.712 162.415L171.156 118.438C174.759 109.68 177.822 100.753 180.331 91.699L167.458 60.3795C157.166 35.3426 142.653 12.0078 132.745 3.55901V0.154702H243.372V3.55901C232.312 17.0833 234.964 37.0448 251.745 77.8343L286.632 162.415L304.075 118.438C328.496 57.1919 320.472 14.2052 311.715 3.4043V0H372V3.4043C357.103 14.2052 333.834 58.2132 317.053 100.829L262.874 237H239.988L184.168 100.829L129.989 237H107.103L34.887 60.3795C24.4209 35.3426 10.0823 12.0078 0 3.55901V0.154702H110.627Z" fill="white"/>
</svg>
