<svg width="207" height="185" viewBox="0 0 207 185" fill="none" xmlns="http://www.w3.org/2000/svg">
<g opacity="0.1">
<path d="M14.0987 51.8909C14.6305 50.97 15.177 50.0567 15.7381 49.1512C15.6772 50.2423 15.0965 51.2834 14.0987 51.8909Z" fill="#FFB685"/>
<path d="M2.98604 79.9841C3.48564 77.8508 4.05289 75.7338 4.68686 73.6365C5.90469 73.6029 7.10191 74.2209 7.75383 75.3501C8.7006 76.9899 8.13875 79.0868 6.49889 80.0336C5.36973 80.6855 4.02389 80.6222 2.98604 79.9841Z" fill="#FFB685"/>
<path d="M0.31399 106.715C0.280784 105.65 0.264194 104.586 0.264109 103.522C0.824435 104.547 0.806818 105.739 0.31399 106.715Z" fill="#FFB685"/>
<path d="M51.6111 192.458C50.6903 191.926 49.7769 191.38 48.8714 190.819C49.9626 190.879 51.0036 191.46 51.6111 192.458Z" fill="#FFB685"/>
<path d="M79.7043 203.571C77.5711 203.071 75.454 202.504 73.3568 201.87C73.3231 200.652 73.9412 199.455 75.0703 198.803C76.7102 197.856 78.8071 198.418 79.7538 200.058C80.4058 201.187 80.3424 202.533 79.7043 203.571Z" fill="#FFB685"/>
<path d="M106.435 206.243C105.37 206.276 104.306 206.292 103.243 206.293C104.268 205.732 105.459 205.75 106.435 206.243Z" fill="#FFB685"/>
<path d="M99.842 0.59376C100.907 0.560546 101.971 0.54396 103.034 0.543873C102.009 1.1042 100.817 1.08659 99.842 0.59376Z" fill="#FFB685"/>
<path d="M126.573 3.26581C125.934 4.30366 125.871 5.64949 126.523 6.77865C127.47 8.41851 129.567 8.98037 131.207 8.0336C132.336 7.38167 132.954 6.18446 132.92 4.96663C130.823 4.33265 128.706 3.7654 126.573 3.26581Z" fill="#FFB685"/>
<path d="M154.666 14.3785C155.273 15.3762 156.314 15.9569 157.405 16.0178C156.5 15.4567 155.587 14.9102 154.666 14.3785Z" fill="#FFB685"/>
<path d="M205.963 100.122C205.47 101.097 205.452 102.289 206.013 103.314C206.013 102.251 205.996 101.186 205.963 100.122Z" fill="#FFB685"/>
<path d="M203.291 126.852C202.253 126.214 200.907 126.151 199.778 126.803C198.138 127.75 197.576 129.846 198.523 131.486C199.175 132.615 200.372 133.234 201.59 133.2C202.224 131.103 202.791 128.986 203.291 126.852Z" fill="#FFB685"/>
<path d="M192.178 154.945C191.18 155.553 190.6 156.594 190.539 157.685C191.1 156.78 191.646 155.866 192.178 154.945Z" fill="#FFB685"/>
<path d="M36.6835 173.458C38.3234 172.511 40.4203 173.073 41.367 174.713C42.3138 176.353 41.7519 178.449 40.1121 179.396C38.4722 180.343 36.3753 179.781 35.4286 178.141C34.4818 176.501 35.0437 174.405 36.6835 173.458Z" fill="#FFB685"/>
<path d="M26.3978 155.642C28.0377 154.696 30.1345 155.257 31.0813 156.897C32.0281 158.537 31.4662 160.634 29.8264 161.581C28.1865 162.528 26.0896 161.966 25.1429 160.326C24.1961 158.686 24.7579 156.589 26.3978 155.642Z" fill="#FFB685"/>
<path d="M16.1121 137.827C17.7519 136.88 19.8488 137.442 20.7956 139.082C21.7424 140.722 21.1805 142.819 19.5407 143.765C17.9008 144.712 15.8039 144.15 14.8571 142.511C13.9104 140.871 14.4722 138.774 16.1121 137.827Z" fill="#FFB685"/>
<path d="M5.82636 120.012C7.46622 119.065 9.56311 119.627 10.5099 121.267C11.4567 122.906 10.8948 125.003 9.25494 125.95C7.61508 126.897 5.51819 126.335 4.57142 124.695C3.62465 123.055 4.1865 120.958 5.82636 120.012Z" fill="#FFB685"/>
<path d="M64.7846 180.987C66.4245 180.041 68.5213 180.603 69.4681 182.242C70.4149 183.882 69.853 185.979 68.2132 186.926C66.5733 187.873 64.4764 187.311 63.5297 185.671C62.5829 184.031 63.1447 181.934 64.7846 180.987Z" fill="#FFB685"/>
<path d="M54.4989 163.172C56.1388 162.225 58.2356 162.787 59.1824 164.427C60.1292 166.067 59.5673 168.164 57.9275 169.111C56.2876 170.057 54.1907 169.495 53.2439 167.856C52.2972 166.216 52.859 164.119 54.4989 163.172Z" fill="#FFB685"/>
<path d="M44.2132 145.357C45.853 144.41 47.9499 144.972 48.8967 146.612C49.8435 148.251 49.2816 150.348 47.6417 151.295C46.0019 152.242 43.905 151.68 42.9582 150.04C42.0115 148.4 42.5733 146.303 44.2132 145.357Z" fill="#FFB685"/>
<path d="M33.9275 127.541C35.5673 126.595 37.6642 127.156 38.611 128.796C39.5578 130.436 38.9959 132.533 37.356 133.48C35.7162 134.427 33.6193 133.865 32.6725 132.225C31.7257 130.585 32.2876 128.488 33.9275 127.541Z" fill="#FFB685"/>
<path d="M23.6417 109.726C25.2816 108.779 27.3785 109.341 28.3253 110.981C29.272 112.621 28.7102 114.718 27.0703 115.664C25.4305 116.611 23.3336 116.049 22.3868 114.409C21.44 112.77 22.0019 110.673 23.6417 109.726Z" fill="#FFB685"/>
<path d="M13.356 91.9105C14.9959 90.9637 17.0928 91.5256 18.0395 93.1655C18.9863 94.8053 18.4245 96.9022 16.7846 97.849C15.1447 98.7958 13.0479 98.2339 12.1011 96.594C11.1543 94.9542 11.7162 92.8573 13.356 91.9105Z" fill="#FFB685"/>
<path d="M92.8857 188.517C94.5256 187.57 96.6224 188.132 97.5692 189.772C98.516 191.412 97.9541 193.509 96.3143 194.456C94.6744 195.402 92.5775 194.84 91.6308 193.201C90.684 191.561 91.2458 189.464 92.8857 188.517Z" fill="#FFB685"/>
<path d="M82.6 170.702C84.2398 169.755 86.3367 170.317 87.2835 171.957C88.2303 173.597 87.6684 175.693 86.0286 176.64C84.3887 177.587 82.2918 177.025 81.345 175.385C80.3983 173.745 80.9601 171.648 82.6 170.702Z" fill="#FFB685"/>
<path d="M72.3143 152.886C73.9541 151.94 76.051 152.501 76.9978 154.141C77.9446 155.781 77.3827 157.878 75.7428 158.825C74.103 159.772 72.0061 159.21 71.0593 157.57C70.1126 155.93 70.6744 153.833 72.3143 152.886Z" fill="#FFB685"/>
<path d="M62.0286 135.071C63.6684 134.124 65.7653 134.686 66.7121 136.326C67.6588 137.966 67.097 140.063 65.4571 141.009C63.8173 141.956 61.7204 141.394 60.7736 139.754C59.8268 138.115 60.3887 136.018 62.0286 135.071Z" fill="#FFB685"/>
<path d="M51.7428 117.256C53.3827 116.309 55.4796 116.871 56.4264 118.511C57.3731 120.15 56.8113 122.247 55.1714 123.194C53.5315 124.141 51.4347 123.579 50.4879 121.939C49.5411 120.299 50.103 118.202 51.7428 117.256Z" fill="#FFB685"/>
<path d="M41.4571 99.4402C43.097 98.4934 45.1939 99.0553 46.1406 100.695C47.0874 102.335 46.5256 104.432 44.8857 105.379C43.2458 106.325 41.149 105.764 40.2022 104.124C39.2554 102.484 39.8173 100.387 41.4571 99.4402Z" fill="#FFB685"/>
<path d="M31.1714 81.6248C32.8113 80.678 34.9082 81.2399 35.8549 82.8798C36.8017 84.5196 36.2398 86.6165 34.6 87.5633C32.9601 88.51 30.8632 87.9482 29.9165 86.3083C28.9697 84.6685 29.5315 82.5716 31.1714 81.6248Z" fill="#FFB685"/>
<path d="M20.8857 63.8094C22.5256 62.8627 24.6224 63.4245 25.5692 65.0644C26.516 66.7042 25.9541 68.8011 24.3143 69.7479C22.6744 70.6947 20.5775 70.1328 19.6307 68.4929C18.684 66.8531 19.2458 64.7562 20.8857 63.8094Z" fill="#FFB685"/>
<path d="M120.987 196.047C122.627 195.1 124.724 195.662 125.67 197.302C126.617 198.942 126.055 201.038 124.415 201.985C122.776 202.932 120.679 202.37 119.732 200.73C118.785 199.09 119.347 196.994 120.987 196.047Z" fill="#FFB685"/>
<path d="M110.701 178.231C112.341 177.285 114.438 177.846 115.385 179.486C116.331 181.126 115.77 183.223 114.13 184.17C112.49 185.117 110.393 184.555 109.446 182.915C108.499 181.275 109.061 179.178 110.701 178.231Z" fill="#FFB685"/>
<path d="M100.415 160.416C102.055 159.469 104.152 160.031 105.099 161.671C106.046 163.311 105.484 165.408 103.844 166.354C102.204 167.301 100.107 166.739 99.1604 165.1C98.2136 163.46 98.7755 161.363 100.415 160.416Z" fill="#FFB685"/>
<path d="M90.1297 142.601C91.7695 141.654 93.8664 142.216 94.8132 143.856C95.7599 145.495 95.1981 147.592 93.5582 148.539C91.9184 149.486 89.8215 148.924 88.8747 147.284C87.9279 145.644 88.4898 143.547 90.1297 142.601Z" fill="#FFB685"/>
<path d="M79.8439 124.785C81.4838 123.838 83.5807 124.4 84.5274 126.04C85.4742 127.68 84.9124 129.777 83.2725 130.724C81.6326 131.67 79.5358 131.109 78.589 129.469C77.6422 127.829 78.2041 125.732 79.8439 124.785Z" fill="#FFB685"/>
<path d="M69.5582 106.97C71.1981 106.023 73.295 106.585 74.2417 108.225C75.1885 109.865 74.6267 111.962 72.9868 112.908C71.3469 113.855 69.25 113.293 68.3033 111.653C67.3565 110.014 67.9184 107.917 69.5582 106.97Z" fill="#FFB685"/>
<path d="M59.2725 89.1545C60.9124 88.2077 63.0092 88.7696 63.956 90.4094C64.9028 92.0493 64.3409 94.1462 62.7011 95.0929C61.0612 96.0397 58.9643 95.4778 58.0176 93.838C57.0708 92.1981 57.6326 90.1012 59.2725 89.1545Z" fill="#FFB685"/>
<path d="M48.9868 71.3391C50.6266 70.3923 52.7235 70.9542 53.6703 72.594C54.6171 74.2339 54.0552 76.3308 52.4154 77.2776C50.7755 78.2243 48.6786 77.6625 47.7318 76.0226C46.7851 74.3828 47.3469 72.2859 48.9868 71.3391Z" fill="#FFB685"/>
<path d="M38.7011 53.5237C40.3409 52.5769 42.4378 53.1388 43.3846 54.7787C44.3314 56.4185 43.7695 58.5154 42.1296 59.4622C40.4898 60.4089 38.3929 59.8471 37.4461 58.2072C36.4994 56.5674 37.0612 54.4705 38.7011 53.5237Z" fill="#FFB685"/>
<path d="M28.4154 35.7083C30.0552 34.7616 32.1521 35.3234 33.0989 36.9633C34.0456 38.6031 33.4838 40.7 31.8439 41.6468C30.2041 42.5936 28.1072 42.0317 27.1604 40.3919C26.2136 38.752 26.7755 36.6551 28.4154 35.7083Z" fill="#FFB685"/>
<path d="M138.802 185.761C140.442 184.814 142.539 185.376 143.486 187.016C144.432 188.656 143.871 190.753 142.231 191.699C140.591 192.646 138.494 192.084 137.547 190.445C136.6 188.805 137.162 186.708 138.802 185.761Z" fill="#FFB685"/>
<path d="M128.516 167.946C130.156 166.999 132.253 167.561 133.2 169.201C134.147 170.84 133.585 172.937 131.945 173.884C130.305 174.831 128.208 174.269 127.262 172.629C126.315 170.989 126.877 168.892 128.516 167.946Z" fill="#FFB685"/>
<path d="M118.231 150.13C119.871 149.183 121.967 149.745 122.914 151.385C123.861 153.025 123.299 155.122 121.659 156.069C120.019 157.016 117.923 156.454 116.976 154.814C116.029 153.174 116.591 151.077 118.231 150.13Z" fill="#FFB685"/>
<path d="M107.945 132.315C109.585 131.368 111.682 131.93 112.629 133.57C113.575 135.21 113.013 137.307 111.374 138.253C109.734 139.2 107.637 138.638 106.69 136.998C105.743 135.359 106.305 133.262 107.945 132.315Z" fill="#FFB685"/>
<path d="M97.6593 114.5C99.2992 113.553 101.396 114.115 102.343 115.754C103.29 117.394 102.728 119.491 101.088 120.438C99.448 121.385 97.3511 120.823 96.4044 119.183C95.4576 117.543 96.0195 115.446 97.6593 114.5Z" fill="#FFB685"/>
<path d="M87.3736 96.6841C89.0135 95.7374 91.1103 96.2992 92.0571 97.9391C93.0039 99.5789 92.442 101.676 90.8022 102.623C89.1623 103.569 87.0654 103.008 86.1187 101.368C85.1719 99.7278 85.7337 97.6309 87.3736 96.6841Z" fill="#FFB685"/>
<path d="M77.0879 78.8688C78.7277 77.922 80.8246 78.4838 81.7714 80.1237C82.7182 81.7636 82.1563 83.8604 80.5165 84.8072C78.8766 85.754 76.7797 85.1921 75.8329 83.5523C74.8862 81.9124 75.448 79.8155 77.0879 78.8688Z" fill="#FFB685"/>
<path d="M66.8022 61.0534C68.442 60.1066 70.5389 60.6685 71.4857 62.3083C72.4325 63.9482 71.8706 66.0451 70.2307 66.9918C68.5909 67.9386 66.494 67.3767 65.5472 65.7369C64.6005 64.097 65.1623 62.0001 66.8022 61.0534Z" fill="#FFB685"/>
<path d="M56.5165 43.238C58.1563 42.2912 60.2532 42.8531 61.2 44.4929C62.1467 46.1328 61.5849 48.2297 59.945 49.1765C58.3052 50.1232 56.2083 49.5614 55.2615 47.9215C54.3147 46.2816 54.8766 44.1848 56.5165 43.238Z" fill="#FFB685"/>
<path d="M46.2307 25.4226C47.8706 24.4758 49.9675 25.0377 50.9143 26.6776C51.861 28.3174 51.2992 30.4143 49.6593 31.3611C48.0195 32.3079 45.9226 31.746 44.9758 30.1061C44.029 28.4663 44.5909 26.3694 46.2307 25.4226Z" fill="#FFB685"/>
<path d="M156.618 175.475C158.257 174.529 160.354 175.09 161.301 176.73C162.248 178.37 161.686 180.467 160.046 181.414C158.406 182.361 156.309 181.799 155.363 180.159C154.416 178.519 154.978 176.422 156.618 175.475Z" fill="#FFB685"/>
<path d="M146.332 157.66C147.972 156.713 150.069 157.275 151.015 158.915C151.962 160.555 151.4 162.652 149.76 163.598C148.121 164.545 146.024 163.983 145.077 162.343C144.13 160.704 144.692 158.607 146.332 157.66Z" fill="#FFB685"/>
<path d="M136.046 139.845C137.686 138.898 139.783 139.46 140.73 141.1C141.676 142.739 141.115 144.836 139.475 145.783C137.835 146.73 135.738 146.168 134.791 144.528C133.844 142.888 134.406 140.791 136.046 139.845Z" fill="#FFB685"/>
<path d="M125.76 122.029C127.4 121.082 129.497 121.644 130.444 123.284C131.391 124.924 130.829 127.021 129.189 127.968C127.549 128.914 125.452 128.353 124.505 126.713C123.559 125.073 124.121 122.976 125.76 122.029Z" fill="#FFB685"/>
<path d="M115.475 104.214C117.115 103.267 119.211 103.829 120.158 105.469C121.105 107.109 120.543 109.205 118.903 110.152C117.263 111.099 115.167 110.537 114.22 108.897C113.273 107.257 113.835 105.161 115.475 104.214Z" fill="#FFB685"/>
<path d="M105.189 86.3984C106.829 85.4516 108.926 86.0135 109.872 87.6534C110.819 89.2932 110.257 91.3901 108.618 92.3369C106.978 93.2837 104.881 92.7218 103.934 91.0819C102.987 89.4421 103.549 87.3452 105.189 86.3984Z" fill="#FFB685"/>
<path d="M94.9033 68.583C96.5431 67.6363 98.64 68.1981 99.5868 69.838C100.534 71.4778 99.9717 73.5747 98.3318 74.5215C96.692 75.4683 94.5951 74.9064 93.6483 73.2666C92.7015 71.6267 93.2634 69.5298 94.9033 68.583Z" fill="#FFB685"/>
<path d="M84.6175 50.7677C86.2574 49.8209 88.3543 50.3827 89.3011 52.0226C90.2478 53.6625 89.686 55.7593 88.0461 56.7061C86.4063 57.6529 84.3094 57.091 83.3626 55.4512C82.4158 53.8113 82.9777 51.7144 84.6175 50.7677Z" fill="#FFB685"/>
<path d="M74.3318 32.9523C75.9717 32.0055 78.0686 32.5674 79.0153 34.2072C79.9621 35.8471 79.4003 37.944 77.7604 38.8907C76.1205 39.8375 74.0237 39.2756 73.0769 37.6358C72.1301 35.9959 72.692 33.8991 74.3318 32.9523Z" fill="#FFB685"/>
<path d="M64.0461 15.1369C65.686 14.1901 67.7829 14.752 68.7296 16.3918C69.6764 18.0317 69.1145 20.1286 67.4747 21.0754C65.8348 22.0221 63.7379 21.4603 62.7912 19.8204C61.8444 18.1806 62.4063 16.0837 64.0461 15.1369Z" fill="#FFB685"/>
<path d="M174.433 165.19C176.073 164.243 178.17 164.805 179.116 166.445C180.063 168.084 179.501 170.181 177.862 171.128C176.222 172.075 174.125 171.513 173.178 169.873C172.231 168.233 172.793 166.136 174.433 165.19Z" fill="#FFB685"/>
<path d="M164.147 147.374C165.787 146.427 167.884 146.989 168.831 148.629C169.778 150.269 169.216 152.366 167.576 153.313C165.936 154.259 163.839 153.698 162.892 152.058C161.946 150.418 162.507 148.321 164.147 147.374Z" fill="#FFB685"/>
<path d="M153.862 129.559C155.501 128.612 157.598 129.174 158.545 130.814C159.492 132.454 158.93 134.551 157.29 135.497C155.65 136.444 153.553 135.882 152.607 134.242C151.66 132.602 152.222 130.506 153.862 129.559Z" fill="#FFB685"/>
<path d="M143.576 111.743C145.216 110.797 147.313 111.359 148.259 112.998C149.206 114.638 148.644 116.735 147.004 117.682C145.365 118.629 143.268 118.067 142.321 116.427C141.374 114.787 141.936 112.69 143.576 111.743Z" fill="#FFB685"/>
<path d="M133.29 93.9281C134.93 92.9813 137.027 93.5432 137.974 95.183C138.92 96.8229 138.359 98.9198 136.719 99.8665C135.079 100.813 132.982 100.251 132.035 98.6116C131.088 96.9717 131.65 94.8749 133.29 93.9281Z" fill="#FFB685"/>
<path d="M123.004 76.1127C124.644 75.1659 126.741 75.7278 127.688 77.3676C128.635 79.0075 128.073 81.1044 126.433 82.0512C124.793 82.9979 122.696 82.4361 121.749 80.7962C120.803 79.1564 121.365 77.0595 123.004 76.1127Z" fill="#FFB685"/>
<path d="M112.719 58.2973C114.358 57.3505 116.455 57.9124 117.402 59.5523C118.349 61.1921 117.787 63.289 116.147 64.2358C114.507 65.1826 112.41 64.6207 111.464 62.9808C110.517 61.341 111.079 59.2441 112.719 58.2973Z" fill="#FFB685"/>
<path d="M102.433 40.4819C104.073 39.5352 106.17 40.097 107.116 41.7369C108.063 43.3767 107.501 45.4736 105.862 46.4204C104.222 47.3672 102.125 46.8053 101.178 45.1655C100.231 43.5256 100.793 41.4287 102.433 40.4819Z" fill="#FFB685"/>
<path d="M92.1472 22.6666C93.7871 21.7198 95.884 22.2816 96.8307 23.9215C97.7775 25.5614 97.2156 27.6583 95.5758 28.605C93.9359 29.5518 91.839 28.9899 90.8923 27.3501C89.9455 25.7102 90.5074 23.6133 92.1472 22.6666Z" fill="#FFB685"/>
<path d="M81.8615 4.85118C83.5014 3.90442 85.5982 4.46626 86.545 6.10613C87.4918 7.74598 86.9299 9.84288 85.2901 10.7896C83.6502 11.7364 81.5533 11.1746 80.6066 9.5347C79.6598 7.89484 80.2216 5.79796 81.8615 4.85118Z" fill="#FFB685"/>
<path d="M181.963 137.089C183.602 136.142 185.699 136.704 186.646 138.343C187.593 139.983 187.031 142.08 185.391 143.027C183.751 143.974 181.654 143.412 180.708 141.772C179.761 140.132 180.323 138.035 181.963 137.089Z" fill="#FFB685"/>
<path d="M171.677 119.273C173.317 118.326 175.414 118.888 176.36 120.528C177.307 122.168 176.745 124.265 175.105 125.212C173.466 126.158 171.369 125.597 170.422 123.957C169.475 122.317 170.037 120.22 171.677 119.273Z" fill="#FFB685"/>
<path d="M161.391 101.458C163.031 100.511 165.128 101.073 166.075 102.713C167.021 104.353 166.46 106.449 164.82 107.396C163.18 108.343 161.083 107.781 160.136 106.141C159.189 104.501 159.751 102.405 161.391 101.458Z" fill="#FFB685"/>
<path d="M151.105 83.6424C152.745 82.6956 154.842 83.2574 155.789 84.8973C156.736 86.5372 156.174 88.6341 154.534 89.5808C152.894 90.5276 150.797 89.9657 149.851 88.3259C148.904 86.686 149.466 84.5891 151.105 83.6424Z" fill="#FFB685"/>
<path d="M140.82 65.827C142.46 64.8802 144.556 65.4421 145.503 67.0819C146.45 68.7218 145.888 70.8187 144.248 71.7654C142.608 72.7122 140.512 72.1504 139.565 70.5105C138.618 68.8706 139.18 66.7738 140.82 65.827Z" fill="#FFB685"/>
<path d="M130.534 48.0116C132.174 47.0648 134.271 47.6267 135.218 49.2665C136.164 50.9064 135.602 53.0033 133.963 53.9501C132.323 54.8968 130.226 54.335 129.279 52.6951C128.332 51.0553 128.894 48.9584 130.534 48.0116Z" fill="#FFB685"/>
<path d="M120.248 30.1962C121.888 29.2495 123.985 29.8113 124.932 31.4512C125.879 33.091 125.317 35.1879 123.677 36.1347C122.037 37.0815 119.94 36.5196 118.993 34.8797C118.047 33.2399 118.608 31.143 120.248 30.1962Z" fill="#FFB685"/>
<path d="M109.963 12.3808C111.602 11.4341 113.699 11.9959 114.646 13.6358C115.593 15.2756 115.031 17.3725 113.391 18.3193C111.751 19.2661 109.654 18.7042 108.708 17.0644C107.761 15.4245 108.323 13.3276 109.963 12.3808Z" fill="#FFB685"/>
<path d="M189.492 108.987C191.132 108.041 193.229 108.602 194.176 110.242C195.123 111.882 194.561 113.979 192.921 114.926C191.281 115.873 189.184 115.311 188.237 113.671C187.291 112.031 187.852 109.934 189.492 108.987Z" fill="#FFB685"/>
<path d="M179.207 91.172C180.846 90.2253 182.943 90.7871 183.89 92.427C184.837 94.0668 184.275 96.1637 182.635 97.1105C180.995 98.0573 178.898 97.4954 177.952 95.8555C177.005 94.2157 177.567 92.1188 179.207 91.172Z" fill="#FFB685"/>
<path d="M168.921 73.3567C170.561 72.4099 172.658 72.9717 173.604 74.6116C174.551 76.2515 173.989 78.3483 172.349 79.2951C170.71 80.2419 168.613 79.68 167.666 78.0402C166.719 76.4003 167.281 74.3034 168.921 73.3567Z" fill="#FFB685"/>
<path d="M158.635 55.5413C160.275 54.5945 162.372 55.1564 163.319 56.7962C164.265 58.4361 163.704 60.533 162.064 61.4797C160.424 62.4265 158.327 61.8647 157.38 60.2248C156.433 58.5849 156.995 56.488 158.635 55.5413Z" fill="#FFB685"/>
<path d="M148.349 37.7259C149.989 36.7791 152.086 37.341 153.033 38.9808C153.98 40.6207 153.418 42.7176 151.778 43.6644C150.138 44.6111 148.041 44.0493 147.094 42.4094C146.148 40.7696 146.71 38.6727 148.349 37.7259Z" fill="#FFB685"/>
<path d="M138.064 19.9105C139.704 18.9637 141.8 19.5256 142.747 21.1655C143.694 22.8053 143.132 24.9022 141.492 25.849C139.852 26.7957 137.756 26.2339 136.809 24.594C135.862 22.9542 136.424 20.8573 138.064 19.9105Z" fill="#FFB685"/>
<path d="M197.022 80.8863C198.662 79.9395 200.759 80.5014 201.705 82.1413C202.652 83.7811 202.09 85.878 200.45 86.8248C198.811 87.7715 196.714 87.2097 195.767 85.5698C194.82 83.93 195.382 81.8331 197.022 80.8863Z" fill="#FFB685"/>
<path d="M186.736 63.0709C188.376 62.1242 190.473 62.686 191.42 64.3259C192.366 65.9657 191.805 68.0626 190.165 69.0094C188.525 69.9562 186.428 69.3943 185.481 67.7545C184.534 66.1146 185.096 64.0177 186.736 63.0709Z" fill="#FFB685"/>
<path d="M176.45 45.2556C178.09 44.3088 180.187 44.8706 181.134 46.5105C182.081 48.1504 181.519 50.2472 179.879 51.194C178.239 52.1408 176.142 51.5789 175.196 49.9391C174.249 48.2992 174.811 46.2023 176.45 45.2556Z" fill="#FFB685"/>
<path d="M166.165 27.4402C167.805 26.4934 169.902 27.0553 170.848 28.6951C171.795 30.335 171.233 32.4319 169.593 33.3786C167.953 34.3254 165.857 33.7636 164.91 32.1237C163.963 30.4838 164.525 28.3869 166.165 27.4402Z" fill="#FFB685"/>
</g>
</svg>
