<svg width="80" height="177" viewBox="0 0 80 177" fill="none" xmlns="http://www.w3.org/2000/svg">
<path d="M-211.183 1.33434C-209.882 -24.4688 -207.656 -51.7662 -192.18 -72.4297C-176.577 -93.2632 -150.454 -102.014 -126.388 -111.886C-102.039 -121.873 -77.2284 -132.641 -51.0114 -130.334C-24.0829 -127.964 0.774363 -115.273 22.2363 -98.8038C43.9419 -82.1476 62.9635 -61.2917 72.4348 -35.6051C81.8162 -10.1623 81.7271 18.054 75.0093 44.3191C68.6351 69.2405 50.8028 88.3847 35.4478 109.005C19.62 130.26 7.33362 155.912 -16.5748 167.307C-40.9491 178.924 -70.0664 178.974 -96.0725 171.689C-120.797 164.764 -139.333 145.636 -157.783 127.753C-174.825 111.236 -190.203 93.3709 -199.442 71.4995C-208.829 49.2776 -212.399 25.4262 -211.183 1.33434Z" fill="#FFA07D" fill-opacity="0.2"/>
</svg>
