<svg width="536" height="506" viewBox="0 0 536 506" fill="none" xmlns="http://www.w3.org/2000/svg">
<path d="M83.0504 -86.439C27.2645 -72.4142 -31.3849 -55.7226 -69.8155 -12.926C-108.562 30.2227 -116.372 91.1436 -127.519 148.053C-138.796 205.627 -151.581 264.553 -135.201 320.889C-118.376 378.754 -79.9098 427.618 -34.6605 467.42C11.1025 507.674 64.8758 540.239 125.067 549.825C184.687 559.32 246.268 546.902 300.719 520.832C352.385 496.096 386.479 448.804 424.867 406.291C464.437 362.469 515.142 324.486 529.684 267.263C544.51 208.925 532.023 145.225 504.865 91.5064C479.046 40.4351 429.256 8.18391 382.222 -24.4197C338.781 -54.5332 293.115 -80.4264 241.356 -91.1563C188.767 -102.058 135.136 -99.5337 83.0504 -86.439Z" fill="white" fill-opacity="0.2"/>
</svg>
