<svg width="162" height="234" viewBox="0 0 162 234" fill="none" xmlns="http://www.w3.org/2000/svg">
<path d="M124.416 -51.3605C149.262 -58.4418 175.821 -65.1303 200.369 -57.1374C225.119 -49.0787 241.82 -27.1682 258.919 -7.56559C276.218 12.2663 294.407 32.2846 300.669 57.8471C307.102 84.1032 303.097 111.724 294.421 137.348C285.646 163.262 272.031 187.989 250.766 205.231C229.703 222.31 202.962 231.317 175.933 233.42C150.287 235.415 126.418 224.702 101.95 216.81C76.7292 208.674 48.4863 205.308 29.9957 186.346C11.1448 167.014 1.71637 139.466 0.233521 112.5C-1.17625 86.8621 10.9594 63.1517 21.9441 39.9233C32.0897 18.469 44.0469 -1.8454 61.7754 -17.6382C79.7879 -33.6842 101.217 -44.7489 124.416 -51.3605Z" fill="#FFA07D" fill-opacity="0.2"/>
</svg>
