<svg width="40" height="40" viewBox="0 0 40 40" fill="none" xmlns="http://www.w3.org/2000/svg">
<path d="M19.5469 2.03121C19.3828 2.17965 19.375 2.26559 19.375 3.24996C19.375 3.82809 19.4062 4.37496 19.4531 4.45309C19.5625 4.66403 19.9531 4.7734 20.2344 4.67184C20.3672 4.63278 20.5078 4.53121 20.5469 4.45309C20.5938 4.37496 20.625 3.8359 20.625 3.25778C20.625 2.26559 20.6172 2.20309 20.4453 2.04684C20.2109 1.82028 19.7734 1.82028 19.5469 2.03121Z" fill="#ECC140"/>
<path d="M12.0312 5.10156C11.7812 5.22656 11.6094 5.57812 11.6797 5.84375C11.7031 5.96875 12.0234 6.33594 12.4375 6.73438C13.0703 7.34375 13.1875 7.42188 13.4375 7.42188C13.8125 7.42188 14.0625 7.16406 14.0625 6.77344C14.0625 6.51562 13.9922 6.40625 13.4609 5.85156C12.664 5.02344 12.4297 4.89844 12.0312 5.10156Z" fill="#ECC140"/>
<path d="M27.3047 5.14062C27.1797 5.22656 26.8125 5.55469 26.5078 5.88281C26 6.40625 25.9375 6.5 25.9375 6.77344C25.9375 7.17969 26.1875 7.42188 26.5938 7.42188C26.8594 7.42188 26.9531 7.35937 27.4922 6.8125C28.2656 6.04687 28.3906 5.85156 28.3203 5.55469C28.2188 5.09375 27.7109 4.88281 27.3047 5.14062Z" fill="#ECC140"/>
<path d="M17.4219 11.5547C16.8203 11.7422 16.2344 12.2891 16.0938 12.8047C15.8984 13.5234 16.0625 14.1797 16.5625 14.6953C16.9531 15.1094 17.4844 15.3125 18.1406 15.3125H18.5156L18.5313 18.1016L18.5547 20.8984L19.1641 20.9219L19.7656 20.9453V18.125V15.3125H20H20.2344V18.125V20.9453L20.8438 20.9219L21.4453 20.8984L21.4688 18.1016L21.4844 15.3125H21.8594C22.7422 15.3125 23.4688 14.8906 23.7969 14.1875C24.1172 13.5 24.0234 12.7578 23.5469 12.2031C22.8203 11.3516 21.7031 11.2656 20.8828 11.9766C20.4141 12.3984 20.2344 12.7891 20.2344 13.4531V13.9844H20H19.7656V13.4531C19.7656 12.7891 19.5859 12.3984 19.1172 11.9844C18.6094 11.5391 17.9922 11.3828 17.4219 11.5547ZM18.3516 13.0156C18.4688 13.1641 18.5156 13.3359 18.5156 13.6016V13.9844H18.0938C17.6016 13.9844 17.3672 13.8359 17.2969 13.4766C17.1875 12.8984 17.9844 12.5547 18.3516 13.0156ZM22.5781 13.0234C22.7031 13.1797 22.7344 13.3047 22.7031 13.4766C22.6328 13.8359 22.3984 13.9844 21.9063 13.9844H21.4844V13.6016C21.4844 13.0859 21.6953 12.8125 22.1094 12.8125C22.3438 12.8125 22.4453 12.8594 22.5781 13.0234Z" fill="#ECC140"/>
<path d="M8.85941 12.7656C8.46097 12.9375 8.37503 13.5078 8.69535 13.8125C8.86722 13.9688 8.95316 13.9844 9.93753 13.9844C10.8282 13.9844 11.0235 13.9609 11.1328 13.8516C11.4922 13.5 11.4063 12.9531 10.9688 12.7656C10.625 12.625 9.19535 12.625 8.85941 12.7656Z" fill="#ECC140"/>
<path d="M29.0156 12.7656C28.7265 12.8906 28.5937 13.2188 28.6796 13.5391C28.789 13.9375 28.9296 13.9766 30.0859 13.9844C31.0937 13.9844 31.1562 13.9766 31.3124 13.8047C31.4921 13.6094 31.539 13.2188 31.4062 12.9688C31.3671 12.8906 31.2187 12.7891 31.0859 12.7422C30.7343 12.6172 29.3124 12.6406 29.0156 12.7656Z" fill="#ECC140"/>
<path d="M9.83594 34.5625C9.79688 34.6094 9.76562 34.8984 9.76562 35.2109V35.7812H19.3203C26.6484 35.7812 28.8984 35.8047 28.9688 35.875C29.0312 35.9375 29.0625 36.3125 29.0625 37.0469V38.125H29.6484H30.2344V36.375C30.2344 35.1406 30.2109 34.6016 30.1484 34.5625C30.0078 34.4766 9.92969 34.4766 9.83594 34.5625Z" fill="black"/>
<path d="M18.3025 20.6875H17.6952C17.4571 20.6875 17.2188 20.6935 17.0273 20.7025C16.9316 20.7069 16.8462 20.7122 16.7775 20.7181C16.7481 20.7206 16.7176 20.7235 16.6887 20.7271C16.6714 20.679 16.6495 20.6248 16.6251 20.5677C16.5681 20.4346 16.4917 20.2737 16.4116 20.1149C16.3314 19.9561 16.2459 19.7962 16.17 19.6652C16.1322 19.5998 16.0956 19.5397 16.0625 19.4897C16.0324 19.4442 15.9958 19.3923 15.9579 19.3545C15.9585 19.355 15.9578 19.3543 15.9557 19.3519C15.9513 19.347 15.9407 19.3352 15.9223 19.314C15.8982 19.2864 15.8656 19.2486 15.827 19.2032C15.7498 19.1125 15.6493 18.9927 15.545 18.8652L15.5421 18.8617L15.5421 18.8617C15.3242 18.6049 15.0566 18.29 14.9374 18.1549L14.934 18.1511L14.934 18.1511C14.5049 17.6844 13.9718 16.8999 13.7091 16.3595L13.4843 16.4688L13.7092 16.3597C12.8589 14.6063 12.8287 12.2626 13.6335 10.4947C13.7172 10.3128 13.8964 9.9931 14.082 9.686C14.27 9.3751 14.4464 9.10729 14.5248 9.01536C15.2431 8.19784 15.7534 7.77138 16.5697 7.30278L16.5713 7.30185C17.3317 6.85765 18.044 6.60971 18.9525 6.4658C19.4149 6.39527 19.6611 6.36281 19.8935 6.35739C20.1249 6.35198 20.3488 6.37324 20.7686 6.42031C23.4087 6.72211 25.634 8.47172 26.5624 10.9619C27.2092 12.7069 27.0826 14.7988 26.2218 16.5284C25.9236 17.1172 25.5025 17.6999 24.6804 18.6228L24.6787 18.6247L24.6787 18.6248C24.034 19.3638 23.5382 20.0889 23.3496 20.6449C23.3357 20.6842 23.3248 20.7134 23.3157 20.7355C23.3072 20.7342 23.2976 20.7326 23.287 20.7306C23.2867 20.7306 23.2864 20.7305 23.2861 20.7305L23.2421 20.9766C23.1171 20.9532 22.6562 20.9297 22.2265 20.9141L18.3025 20.6875ZM18.3025 20.6875L18.2812 18.1271L18.2812 18.1264L18.2669 15.5625H18.1405C17.342 15.5625 16.6645 15.241 16.2378 14.7176C15.81 14.1928 15.6483 13.4818 15.8526 12.7385L15.8531 12.7367C15.9182 12.5063 16.0854 12.2491 16.2714 12.0332C16.4593 11.815 16.6948 11.6059 16.9254 11.4883L16.9262 11.4879C17.7285 11.0823 18.5958 11.1905 19.2814 11.7882L19.2814 11.7881L19.2843 11.7908C19.5357 12.0169 19.7236 12.2475 19.8456 12.5227C19.9285 12.7096 19.9772 12.9084 19.9999 13.128L18.3025 20.6875ZM16.5618 20.7498C16.5618 20.7498 16.5622 20.7498 16.5629 20.7498L16.5618 20.7498Z" fill="#ECC16B" stroke="black" stroke-width="0.5"/>
<path d="M17.8115 13.3369C17.7985 13.3531 17.7908 13.3645 17.7865 13.3717C17.7869 13.3749 17.7874 13.379 17.7883 13.384C17.7959 13.4213 17.8041 13.4388 17.8071 13.4443C17.8193 13.4514 17.8718 13.4752 18.0097 13.4823C17.9977 13.3716 17.9709 13.3297 17.9655 13.3228C17.9653 13.3227 17.9653 13.3226 17.9652 13.3225C17.9651 13.3224 17.965 13.3224 17.9647 13.3223C17.9607 13.3206 17.9396 13.3125 17.8907 13.3125C17.8627 13.3125 17.8434 13.3134 17.8305 13.3146C17.8255 13.32 17.8192 13.3273 17.8115 13.3369Z" fill="#ECC16B" stroke="black"/>
<path d="M22.0764 13.3032C22.0641 13.3055 22.0535 13.3099 22.04 13.3265C22.0229 13.3484 21.9997 13.381 21.9895 13.4824C22.128 13.4753 22.1807 13.4514 22.193 13.4443C22.196 13.4387 22.2044 13.4209 22.2121 13.3824C22.2151 13.3655 22.2122 13.361 22.21 13.3574C22.2099 13.3572 22.2097 13.357 22.2096 13.3568C22.2038 13.3473 22.1871 13.3289 22.1552 13.315C22.1235 13.3012 22.0944 13.2998 22.0764 13.3032Z" fill="#ECC16B" stroke="black"/>
<mask id="path-11-inside-1_118_291" fill="white">
<path d="M19.7656 18.125V20.9375H20H20.2344V18.125V15.3125H20H19.7656V18.125Z"/>
</mask>
<path d="M19.7656 18.125V20.9375H20H20.2344V18.125V15.3125H20H19.7656V18.125Z" fill="#ECC16B"/>
<path d="M19.7656 20.9375V21.9375H18.7656V20.9375H19.7656ZM20.2344 20.9375H21.2344V21.9375H20.2344V20.9375ZM20.2344 15.3125V14.3125H21.2344V15.3125H20.2344ZM19.7656 15.3125H18.7656V14.3125H19.7656V15.3125ZM20.7656 18.125V20.9375H18.7656V18.125H20.7656ZM19.7656 19.9375H20V21.9375H19.7656V19.9375ZM20 19.9375H20.2344V21.9375H20V19.9375ZM19.2344 20.9375V18.125H21.2344V20.9375H19.2344ZM19.2344 18.125V15.3125H21.2344V18.125H19.2344ZM20.2344 16.3125H20V14.3125H20.2344V16.3125ZM20 16.3125H19.7656V14.3125H20V16.3125ZM20.7656 15.3125V18.125H18.7656V15.3125H20.7656Z" fill="black" mask="url(#path-11-inside-1_118_291)"/>
<path d="M22.5858 21.7031L22.8184 21.6113C22.8956 21.807 22.9147 22.0531 22.8997 22.2774C22.8846 22.5028 22.8326 22.7422 22.7379 22.9266L22.7382 22.9268L22.7319 22.9377C22.6225 23.1266 22.3863 23.3609 22.1698 23.4832L22.0468 23.2656L22.1702 23.483C22.1088 23.5178 22.0659 23.5431 22.0348 23.5633C22.1865 23.9699 22.1353 24.4159 21.9589 24.7768C21.7865 25.1291 21.4792 25.4298 21.0796 25.5256C21.1309 25.7115 21.1618 25.8662 21.1639 26.0149C21.1665 26.1957 21.1264 26.3494 21.0628 26.5233L21.0628 26.5233L21.0615 26.5269C20.9907 26.7117 20.9145 26.8646 20.8024 26.9981C21.2144 26.9819 21.4232 26.9533 21.5673 26.8907C21.6998 26.8332 21.7994 26.7369 21.9647 26.4926L21.9647 26.4926L21.9673 26.4889C22.0317 26.3973 22.0578 26.341 22.0711 26.2849C22.0854 26.2248 22.0898 26.1452 22.079 25.9992C22.0679 25.896 22.0532 25.7922 22.038 25.7071C22.0303 25.6639 22.0227 25.6275 22.0159 25.5996C22.0105 25.5775 22.0069 25.5663 22.0058 25.5628C22.0058 25.5627 22.0057 25.5626 22.0057 25.5625L22.0055 25.5625L22.0009 25.5506C21.9859 25.5116 21.9673 25.4518 21.9709 25.3823C21.9752 25.3014 22.0088 25.2262 22.0685 25.1686C22.1201 25.1189 22.18 25.0931 22.224 25.0781C22.269 25.0628 22.3184 25.052 22.3673 25.0434C22.8257 24.9484 23.1794 24.3774 23.0468 23.8433C23.02 23.7419 22.9985 23.66 22.9839 23.5966C22.9707 23.5391 22.9568 23.4717 22.9579 23.4104C22.9585 23.3774 22.9634 23.3266 22.9896 23.2734C23.0192 23.213 23.0667 23.1688 23.1212 23.1423C23.1681 23.1194 23.2119 23.1137 23.2352 23.1115C23.2536 23.1098 23.2718 23.1094 23.2855 23.1093C23.2899 23.1076 23.3076 23.1011 23.3403 23.0802C23.3885 23.0493 23.4474 23.0011 23.509 22.939C23.6353 22.8118 23.7436 22.6569 23.7897 22.5359L23.79 22.5352C23.857 22.3609 23.8771 22.2175 23.8627 22.0833C23.8481 21.9481 23.7966 21.8037 23.6927 21.6302C23.5297 21.3685 23.2253 21.2043 22.5335 21.1954C22.6509 21.3242 22.7653 21.4761 22.8185 21.6117L22.5858 21.7031ZM22.5858 21.7031C22.5306 21.5626 22.3562 21.3544 22.1825 21.1986L22.0317 23.5551C22.0203 23.5217 22.0183 23.5107 22.0181 23.5107C22.0181 23.5107 22.0182 23.5113 22.0182 23.5124C22.0187 23.5185 22.0187 23.5312 22.0146 23.5474C22.0136 23.5511 22.0125 23.5548 22.0114 23.5582L21.7968 23.6406M22.5858 21.7031C22.703 21.9999 22.664 22.5234 22.5155 22.8124C22.4296 22.9609 22.2265 23.164 22.0468 23.2656C21.7577 23.4296 21.7343 23.4609 21.7968 23.6406M21.7968 23.6406C22.0546 24.3124 21.6405 25.1562 20.9921 25.289M21.7968 23.6406L22.0079 23.5671L20.9921 25.289M20.9921 25.289L21.0244 25.4378L21.0517 25.4298C21.0519 25.4244 21.0516 25.4214 21.0516 25.4214C21.0516 25.4214 21.0516 25.4217 21.0517 25.4224C21.052 25.4247 21.0528 25.4293 21.0544 25.4369L20.9921 25.289ZM20.9921 25.289L21.0227 25.4383L20.8124 25.4999C20.7811 25.3671 20.8124 25.3281 20.9921 25.289Z" fill="#45D6A9" stroke="black" stroke-width="0.5"/>
<path d="M1.46727 26.2495L1.26578 26.6663L1.28125 32.3506L1.28125 32.3509L1.3037 37.8442L1.75842 37.8596V37.8596L1.75914 37.8596C1.85508 37.8631 1.93615 37.8658 2.00455 37.8676C2.001 37.8437 1.99804 37.8197 1.99535 37.7958C1.9769 37.6321 1.96536 37.3742 1.95805 36.9615C1.94334 36.1321 1.94532 34.6385 1.95313 31.929L1.95313 31.9287L1.97656 25.9756L1.97678 25.9214L1.99944 25.8721L2.17849 25.4829C2.22105 25.3875 2.28675 25.2757 2.36447 25.1628C2.26396 25.2252 2.17179 25.294 2.08626 25.3703C1.84826 25.5824 1.64958 25.8625 1.46834 26.2472L1.46835 26.2472L1.46727 26.2495Z" fill="#D59970" stroke="black" stroke-width="0.5"/>
<path d="M5.82043 29.1328C5.59387 29.2266 5.47668 29.3906 5.42199 29.6719C5.37512 29.8984 5.46887 30.0078 7.38293 31.9766L5.82043 29.1328ZM5.82043 29.1328L5.91602 29.3638C5.91397 29.3647 5.91194 29.3655 5.90993 29.3664C5.90844 29.3669 5.90708 29.3673 5.90586 29.3678L5.82043 29.1328ZM11.7189 34.2109L11.6112 34.4366L11.6115 34.4367C11.4819 34.3753 11.361 34.3064 11.2177 34.2031H11.7025C11.708 34.2057 11.7134 34.2083 11.7189 34.2109ZM11.7189 34.2109L12.2267 34.4531H11.6459L11.6118 34.4369L11.7189 34.2109ZM6.09448 29.3501C6.08705 29.345 6.08212 29.3418 6.07935 29.3402C6.08551 29.3432 6.09978 29.3494 6.11961 29.3538C6.12166 29.3543 6.12376 29.3547 6.12592 29.3551L6.1259 29.3552L6.11961 29.3538C6.11261 29.3523 6.10416 29.351 6.09448 29.3501ZM8.61286 31.7397C8.61282 31.7397 8.61277 31.7396 8.61273 31.7396L8.78918 31.5625L8.61286 31.7397ZM9.88339 34.0294C9.8839 34.0297 9.88441 34.03 9.88492 34.0302C9.88527 34.0304 9.88561 34.0306 9.88595 34.0308L9.76574 34.25L9.88339 34.0294ZM5.66346 29.7368C5.66344 29.7368 5.66355 29.7375 5.66397 29.7389C5.66381 29.7402 5.6638 29.7408 5.6638 29.7408C5.66381 29.7408 5.66384 29.7402 5.66378 29.7393C5.66368 29.7377 5.66348 29.7369 5.66346 29.7368Z" fill="#D59970" stroke="black" stroke-width="0.5"/>
<path d="M16.3239 21.6047L16.3239 21.6047L16.3227 21.6062C16.2359 21.7183 16.2004 21.7821 16.1803 21.8473C16.1587 21.9169 16.1484 22.0084 16.1484 22.1875C16.1484 22.3666 16.1587 22.4581 16.1803 22.5278C16.2004 22.5929 16.2359 22.6568 16.3227 22.7689L16.3228 22.7687L16.3284 22.7766C16.3732 22.8393 16.4372 22.9073 16.5045 22.9662C16.572 23.0253 16.6285 23.0626 16.6577 23.0769C16.7666 23.1236 16.871 23.1716 16.8931 23.1827L16.9293 23.2008L16.958 23.2295C17.0003 23.2717 17.0157 23.3173 17.0208 23.3337C17.0272 23.3547 17.0297 23.3722 17.0307 23.3819C17.0329 23.4014 17.0325 23.4178 17.0322 23.4258C17.0315 23.4436 17.0295 23.4608 17.0277 23.4735C17.0239 23.5008 17.0179 23.5342 17.0105 23.57C16.9957 23.642 16.973 23.7365 16.9446 23.8382C16.9124 23.9639 16.9004 24.0459 16.9004 24.1172C16.9004 24.1872 16.912 24.26 16.943 24.3669C16.9814 24.4954 17.0871 24.6547 17.2326 24.7942C17.3785 24.934 17.5296 25.0207 17.6337 25.0437C17.6823 25.0522 17.7312 25.063 17.7759 25.0782C17.8199 25.0932 17.8798 25.119 17.9313 25.1687C17.9911 25.2263 18.0247 25.3015 18.0289 25.3824C18.0326 25.4519 18.014 25.5117 17.999 25.5507L17.9993 25.5508L17.9941 25.5625C17.9946 25.5614 17.9946 25.5614 17.9941 25.5629C17.993 25.5664 17.9894 25.5776 17.984 25.5996C17.9772 25.6276 17.9696 25.664 17.9619 25.7071C17.9467 25.7922 17.932 25.8961 17.9209 25.9992C17.9101 26.1453 17.9145 26.2249 17.9288 26.285C17.9421 26.3411 17.9682 26.3974 18.0326 26.489L18.0326 26.4889L18.0346 26.4919C18.196 26.7283 18.2994 26.8301 18.429 26.8907C18.5699 26.9565 18.7727 26.9884 19.1714 27.0001L19.1714 27.0001L19.1733 27.0002C19.4942 27.0121 19.6605 27.0125 19.7825 26.9948C19.8902 26.9792 19.9682 26.9489 20.108 26.8737L20.108 26.8737L20.1093 26.873C20.3308 26.7553 20.4461 26.6401 20.51 26.507C20.5767 26.3681 20.6048 26.1741 20.579 25.8645L20.5788 25.8627L20.5786 25.8598C20.5691 25.7346 20.5613 25.6314 20.5591 25.5507C20.5569 25.4748 20.558 25.3876 20.5826 25.3086C20.614 25.2074 20.6789 25.1328 20.7684 25.0871C20.83 25.0557 20.902 25.0404 20.9474 25.0307C20.9502 25.0301 20.9528 25.0296 20.9554 25.029L20.9554 25.0289L20.9617 25.0277C20.9774 25.0248 21.0274 25.006 21.1031 24.9588C21.1721 24.9158 21.242 24.862 21.2956 24.8118C21.4616 24.6487 21.55 24.491 21.585 24.317C21.621 24.1374 21.6052 23.9154 21.5179 23.6171L21.7578 23.5469L21.518 23.6174C21.4965 23.5444 21.4614 23.4003 21.5479 23.2666C21.6267 23.1448 21.7624 23.1054 21.8348 23.0864L21.8348 23.0863L21.8412 23.0848C21.8582 23.0808 21.8999 23.063 21.9622 23.0147C22.0212 22.9691 22.0851 22.9066 22.1462 22.8337C22.2735 22.6816 22.359 22.5198 22.3792 22.4151C22.4689 21.919 22.2151 21.4477 21.8032 21.2781L21.8032 21.2781L21.8018 21.2775C21.8025 21.2778 21.8028 21.2779 21.8028 21.278C21.8027 21.2782 21.7866 21.2733 21.7433 21.2665C21.6971 21.2592 21.635 21.2519 21.5572 21.245C21.402 21.231 21.1961 21.2193 20.9544 21.2099C20.4717 21.1912 19.8565 21.1822 19.2404 21.1826C18.6243 21.1831 18.0101 21.1931 17.5292 21.2121C17.2884 21.2216 17.0835 21.2333 16.9296 21.2469C16.8524 21.2537 16.7908 21.2608 16.7453 21.2678C16.7123 21.2729 16.6957 21.2768 16.6901 21.2781C16.6519 21.2982 16.5905 21.3402 16.5197 21.4013C16.4447 21.466 16.3735 21.5395 16.3239 21.6047Z" fill="#45D6A9" stroke="black" stroke-width="0.5"/>
<path d="M22.4065 26.0948C22.4089 26.0701 22.4101 26.043 22.4102 26.0156C22.4102 25.9879 22.409 25.9598 22.4066 25.9337C22.391 25.9319 22.3759 25.9318 22.3614 25.9329C22.3601 25.9563 22.3594 25.984 22.3594 26.0156C22.3594 26.0459 22.36 26.0727 22.3613 26.0953C22.3763 26.0965 22.3914 26.0964 22.4065 26.0948Z" fill="#6B9696" stroke="black" stroke-width="0.5"/>
<mask id="path-18-inside-2_118_291" fill="white">
<path d="M21.9454 26.9219C21.7657 27.1173 21.7657 27.1251 21.9298 27.0235C22.0313 26.9688 22.1251 26.8751 22.1407 26.8204C22.2032 26.6719 22.1563 26.6954 21.9454 26.9219Z"/>
</mask>
<path d="M21.9454 26.9219C21.7657 27.1173 21.7657 27.1251 21.9298 27.0235C22.0313 26.9688 22.1251 26.8751 22.1407 26.8204C22.2032 26.6719 22.1563 26.6954 21.9454 26.9219Z" fill="#6B9696"/>
<path d="M21.9454 26.9219L21.5774 26.5834L21.5794 26.5812L21.9454 26.9219ZM21.9298 27.0235L21.6666 26.5984L21.6794 26.5904L21.6927 26.5833L21.9298 27.0235ZM22.1407 26.8204L21.6599 26.683L21.6682 26.6541L21.6799 26.6263L22.1407 26.8204ZM22.3133 27.2605C22.2676 27.3101 22.2401 27.3406 22.2244 27.359C22.2159 27.369 22.218 27.3671 22.2245 27.3582C22.2275 27.3539 22.2377 27.3396 22.2494 27.3184C22.2552 27.3078 22.2907 27.2453 22.3036 27.1548C22.3107 27.1055 22.316 27.0146 22.2768 26.9102C22.2325 26.7924 22.1466 26.6989 22.0403 26.6437C21.873 26.5568 21.7193 26.5966 21.7077 26.5992C21.6662 26.6083 21.6366 26.6208 21.6284 26.6243C21.6167 26.6293 21.6092 26.6332 21.6077 26.634C21.6049 26.6354 21.6079 26.634 21.6205 26.6265C21.6319 26.6197 21.6469 26.6106 21.6666 26.5984L22.1929 27.4486C22.1556 27.4718 22.1081 27.501 22.0677 27.5219C22.059 27.5264 21.9989 27.559 21.9227 27.5758C21.9063 27.5794 21.7491 27.6192 21.5796 27.5312C21.4722 27.4755 21.3855 27.3811 21.3408 27.2621C21.3011 27.1567 21.3064 27.0643 21.3137 27.0133C21.3271 26.9193 21.3644 26.8523 21.3735 26.8359C21.3883 26.8089 21.403 26.7876 21.412 26.7752C21.4302 26.7498 21.4495 26.7266 21.4637 26.71C21.4934 26.6752 21.5333 26.6314 21.5774 26.5834L22.3133 27.2605ZM21.6927 26.5833C21.6944 26.5823 21.699 26.5797 21.705 26.5751C21.7111 26.5706 21.7158 26.5664 21.7185 26.5638C21.7219 26.5605 21.7183 26.5634 21.7107 26.5739C21.7067 26.5794 21.6994 26.59 21.6911 26.6055C21.6833 26.62 21.6704 26.6464 21.6599 26.683L22.6215 26.9577C22.5756 27.1181 22.4655 27.2322 22.4164 27.2801C22.348 27.3467 22.2621 27.4124 22.1668 27.4637L21.6927 26.5833ZM21.6799 26.6263C21.6849 26.6145 21.6853 26.6125 21.6836 26.6175C21.6827 26.6203 21.6802 26.6284 21.6773 26.6404C21.6748 26.6511 21.6698 26.6743 21.6675 26.7056C21.6656 26.7322 21.663 26.796 21.686 26.874C21.7114 26.9602 21.7763 27.0852 21.919 27.1645C22.0532 27.2392 22.1802 27.2305 22.2447 27.2188C22.3094 27.2071 22.3554 27.1849 22.3749 27.1748C22.4336 27.1446 22.4588 27.1131 22.4198 27.1504C22.397 27.1724 22.362 27.2082 22.3113 27.2626L21.5794 26.5812C21.6342 26.5224 21.6842 26.4703 21.7275 26.4288C21.7548 26.4027 21.8273 26.3321 21.9163 26.2862C21.9433 26.2723 21.9959 26.2477 22.066 26.2349C22.1359 26.2222 22.2673 26.214 22.405 26.2906C22.5511 26.3718 22.6183 26.5001 22.6451 26.591C22.6696 26.6738 22.6674 26.7438 22.6649 26.778C22.6569 26.8883 22.6121 26.9893 22.6015 27.0144L21.6799 26.6263Z" fill="black" mask="url(#path-18-inside-2_118_291)"/>
<path d="M3.1158 25.0501L3.11586 25.0501L3.11097 25.0544C2.93241 25.2124 2.71273 25.5119 2.63472 25.6875L2.63474 25.6875L2.63339 25.6904L2.47636 26.0318L2.45314 31.9304C2.44532 34.6114 2.44339 36.0986 2.45701 36.9295C2.46385 37.3467 2.47454 37.5899 2.4892 37.7337C2.49298 37.7707 2.49677 37.7983 2.5002 37.8187C2.50278 37.8193 2.50551 37.8198 2.50839 37.8204C2.57435 37.8334 2.68713 37.845 2.88503 37.8538C3.27768 37.871 3.95488 37.875 5.14845 37.875C6.1486 37.875 6.8284 37.8691 7.26616 37.8546C7.48582 37.8474 7.63899 37.8381 7.73919 37.8271C7.7423 37.8267 7.74534 37.8264 7.7483 37.826C7.74854 37.824 7.74877 37.8219 7.74901 37.8198C7.75998 37.7219 7.76926 37.572 7.77653 37.3568C7.79102 36.9279 7.79689 36.2619 7.79689 35.2812V32.7277L6.53365 31.4497C6.53356 31.4496 6.53347 31.4495 6.53338 31.4494C5.89117 30.8033 5.54434 30.4531 5.36784 30.234C5.27923 30.124 5.21249 30.0224 5.181 29.9136C5.14649 29.7942 5.16314 29.6953 5.17617 29.6258L5.17617 29.6258L5.17654 29.6239C5.2196 29.4038 5.31513 29.2093 5.47239 29.0692C5.63162 28.9273 5.83398 28.8594 6.0547 28.8594C6.15993 28.8594 6.26224 28.8792 6.39051 28.9517C6.50411 29.0159 6.63879 29.1219 6.82172 29.2851C7.19052 29.6142 7.81187 30.2278 8.94993 31.362L8.95023 31.3623C10.0218 32.4338 10.6422 33.0444 11.0489 33.4135C11.4512 33.7786 11.6302 33.8943 11.8177 33.9848L12.3235 34.2183L12.3177 34.2475C12.7576 34.2492 13.3111 34.25 13.9451 34.25C14.0354 34.2498 14.1236 34.2497 14.2096 34.2495C16.0021 34.2461 16.8652 34.2444 17.3524 34.1808C17.599 34.1486 17.7232 34.1032 17.8151 34.0476C17.9057 33.9929 17.9777 33.9225 18.1057 33.7975C18.1209 33.7826 18.1368 33.767 18.1537 33.7506L18.1553 33.7491C18.3178 33.5935 18.4234 33.4413 18.4898 33.2713C18.5568 33.0998 18.5896 32.8956 18.586 32.6284L18.586 32.6284V32.625C18.586 31.8229 18.0843 31.1946 17.3452 31.0333L17.3452 31.0334L17.3398 31.0321C17.3088 31.0246 17.2095 31.013 17.0265 31.0021C16.8526 30.9917 16.6225 30.9828 16.346 30.9755C15.7933 30.9609 15.0613 30.9531 14.2344 30.9531H11.4453H11.3418L11.2686 30.8799L8.57324 28.1846C7.39215 27.0035 6.71474 26.334 6.30737 25.9594C6.10251 25.7711 5.97489 25.6657 5.89077 25.6081C5.84456 25.5765 5.82044 25.5657 5.81192 25.5625C5.55817 25.561 5.24302 25.4948 4.94585 25.3991C4.64363 25.3018 4.33602 25.1662 4.10444 25.0133L4.10287 25.0123C3.823 24.8244 3.67334 24.7755 3.56524 24.7809C3.4632 24.786 3.33779 24.8431 3.1158 25.0501Z" fill="#FFB685" stroke="black" stroke-width="0.5"/>
<path d="M24.4374 34.5078C25.3906 34.5234 26.9531 34.5234 27.914 34.5078C28.8671 34.5 28.0859 34.4922 26.1718 34.4922C24.2578 34.4922 23.4765 34.5 24.4374 34.5078Z" fill="#FFB685"/>
<path d="M5.07806 17.1094C4.92963 17.1484 4.78119 17.1562 4.74994 17.1406C4.71088 17.1172 4.68744 17.1406 4.68744 17.1875C4.68744 17.2422 4.63275 17.2578 4.56244 17.2344C4.48431 17.2031 4.46088 17.2188 4.49994 17.2812C4.539 17.3438 4.51556 17.3516 4.42181 17.3203C4.3515 17.2891 4.30463 17.2969 4.32806 17.3359C4.37494 17.4062 3.914 17.6328 3.80463 17.5938C3.76556 17.5859 3.75775 17.6094 3.78119 17.6484C3.83588 17.7266 3.43744 18.0156 3.32025 17.9766C3.28119 17.9688 3.26556 17.9844 3.29681 18.0156C3.32806 18.0469 3.24994 18.1953 3.13275 18.3516C3.00775 18.5078 2.84369 18.7656 2.76556 18.9219C2.69525 19.0859 2.60931 19.2031 2.58588 19.1875C2.56244 19.1719 2.53119 19.2422 2.52338 19.3516C2.52338 19.4609 2.48431 19.5703 2.43744 19.6016C2.39056 19.625 2.36713 20.0781 2.38275 20.7031C2.40619 22.0547 2.63275 22.8438 3.289 23.7969C3.414 23.9766 3.49213 24.1406 3.4765 24.1719C3.45306 24.1953 3.46088 24.2031 3.49213 24.1797C3.51556 24.1562 3.69525 24.2891 3.88275 24.4609C4.40619 24.9375 4.96088 25.1641 5.7265 25.2031L6.36713 25.2422L5.99213 25.0859C4.61713 24.5234 3.67181 22.9375 3.539 20.9766C3.49213 20.2031 3.60931 19.5547 3.92963 18.9141C4.289 18.1875 5.14838 17.4375 5.93744 17.1641L6.289 17.0391L5.82025 17.0469C5.56244 17.0469 5.2265 17.0781 5.07806 17.1094Z" fill="black"/>
<path d="M34.0625 17.1563C35.6328 17.7344 36.5703 19.2344 36.4609 20.9766C36.3359 22.9141 35.3516 24.5547 34.0078 25.0781L33.6328 25.2266L34.0703 25.2344C36 25.25 37.4766 23.4688 37.6328 20.9375C37.7031 19.7656 37.3672 18.8438 36.5938 18.0703C35.9844 17.461 35.2031 17.1094 34.3594 17.0625L33.7109 17.0235L34.0625 17.1563Z" fill="black"/>
<path d="M9.76562 36.9531V38.125H19.4141H29.0625V37.1016C29.0625 36.5391 29.0234 36.0156 28.9844 35.9297C28.9062 35.7812 28.7109 35.7812 19.3359 35.7812H9.76562V36.9531Z" fill="black"/>
<path d="M5.15621 17.0234C5.05464 17.0546 5.29683 17.0703 5.69527 17.0625C6.09371 17.0546 6.43746 17.0234 6.46089 17C6.53121 16.9375 5.39839 16.9531 5.15621 17.0234Z" fill="black"/>
<path d="M33.5703 17.0313C33.6015 17.0625 33.8593 17.0547 34.1406 17.0234L34.6484 16.9688L34.0781 16.9766C33.7656 16.9766 33.539 17 33.5703 17.0313Z" fill="black"/>
<path d="M6.96885 17.1797C7.90635 17.4922 8.74229 18.2188 9.14854 19.086C9.27354 19.3516 9.35948 19.4844 9.32823 19.375C9.07823 18.3985 7.78916 17.2188 6.79698 17.0704C6.61729 17.0391 6.67198 17.0782 6.96885 17.1797Z" fill="black"/>
<path d="M4.22656 17.3594C3.67969 17.625 2.94531 18.3594 2.66406 18.9297C2.53125 19.211 2.42188 19.4844 2.42188 19.5391C2.42188 19.5938 2.54688 19.3907 2.69531 19.0782C3.02344 18.3907 3.61719 17.7657 4.26562 17.4297C4.78906 17.1641 4.75781 17.1094 4.22656 17.3594Z" fill="black"/>
<path d="M35.7422 17.4375C36 17.5703 36.4141 17.8907 36.6641 18.1485C36.9219 18.4063 37.086 18.5469 37.0391 18.4532C36.9063 18.2032 36.1016 17.5235 35.7266 17.3438C35.211 17.1016 35.2188 17.1641 35.7422 17.4375Z" fill="black"/>
<path d="M4.57031 18.0625L4.17969 18.4766L4.59375 18.0859C4.8125 17.875 5 17.6875 5 17.6797C5 17.6172 4.92969 17.6875 4.57031 18.0625Z" fill="black"/>
<path d="M37.2344 18.914C37.3125 19.0624 37.4375 19.3749 37.5156 19.6093C37.6406 19.9765 37.6563 19.9921 37.6094 19.7343C37.5625 19.3984 37.2969 18.7812 37.1719 18.7031C37.1328 18.6718 37.1563 18.7734 37.2344 18.914Z" fill="black"/>
<path d="M9.48438 20.664C9.48438 21.0937 9.49219 21.2578 9.50781 21.0312C9.52344 20.8047 9.52344 20.4531 9.50781 20.25C9.49219 20.0468 9.48438 20.2343 9.48438 20.664Z" fill="black"/>
<path d="M2.28906 20.6641C2.28906 21.0079 2.30469 21.1407 2.32031 20.9532C2.33594 20.7735 2.33594 20.4922 2.32031 20.3282C2.30469 20.1719 2.28906 20.3204 2.28906 20.6641Z" fill="black"/>
<path d="M3.53906 20.6641C3.53906 21.0079 3.55469 21.1407 3.57031 20.9532C3.58594 20.7735 3.58594 20.4922 3.57031 20.3282C3.55469 20.1719 3.53906 20.3204 3.53906 20.6641Z" fill="black"/>
<path d="M36.4297 20.6641C36.4297 21.0079 36.4453 21.1407 36.4609 20.9532C36.4766 20.7735 36.4766 20.4922 36.4609 20.3282C36.4453 20.1719 36.4297 20.3204 36.4297 20.6641Z" fill="black"/>
<path d="M37.6797 20.664C37.6797 20.9609 37.6953 21.0781 37.7109 20.914C37.7266 20.7578 37.7266 20.5078 37.7109 20.3671C37.6953 20.2343 37.6797 20.3593 37.6797 20.664Z" fill="black"/>
<path d="M2.35938 21.5625C2.35938 21.7109 2.375 21.7734 2.39844 21.6953C2.41406 21.625 2.41406 21.5 2.39844 21.4219C2.375 21.3515 2.35938 21.414 2.35938 21.5625Z" fill="black"/>
<path d="M9.31249 21.9688C9.2578 22.2344 9.05468 22.7735 8.86718 23.1641C8.24999 24.4532 7.41405 25.0782 6.1328 25.2188C5.60937 25.2813 5.5703 25.2969 5.89843 25.2969C7.28124 25.3282 8.46093 24.4454 9.08593 22.9141C9.29687 22.3907 9.48437 21.6876 9.43749 21.5547C9.42187 21.5079 9.36718 21.6954 9.31249 21.9688Z" fill="black"/>
<path d="M2.42188 21.961C2.42188 22.1328 2.67969 22.8672 2.89062 23.2813C3.125 23.7578 3.63281 24.4141 3.89062 24.5781C4.02344 24.6641 3.95312 24.5547 3.70312 24.2891C3.20312 23.75 2.90625 23.2422 2.64062 22.461C2.52344 22.1172 2.42188 21.8906 2.42188 21.961Z" fill="black"/>
<path d="M37.4063 22.3047C37.375 22.4297 37.3359 22.6094 37.3125 22.6953C37.2813 22.7813 37.3203 22.7344 37.3828 22.586C37.4531 22.4453 37.4922 22.2656 37.4844 22.1953C37.4688 22.125 37.4297 22.1719 37.4063 22.3047Z" fill="black"/>
<path d="M36.8361 23.6171C36.7579 23.7578 36.5314 24.0312 36.3439 24.2343C35.9532 24.6484 35.9454 24.75 36.3204 24.3671C36.6017 24.0937 37.0626 23.4453 37.0157 23.3984C37.0001 23.375 36.9142 23.4765 36.8361 23.6171Z" fill="black"/>
<path d="M33.664 25.2578C33.703 25.2969 33.8671 25.3125 34.0312 25.2969L34.3358 25.2734L33.9687 25.2344C33.7655 25.2109 33.6327 25.2266 33.664 25.2578Z" fill="black"/>
<path d="M33.0547 17.1562C30.6328 17.9687 29.8125 20.4765 31.1015 23.1718C31.5 24.0078 32.0468 24.6093 32.7109 24.9375C33.3359 25.2422 33.5781 25.25 34.1718 24.9609C35.1406 24.5 35.914 23.414 36.2578 22.039C36.3906 21.5234 36.414 21.2031 36.3984 20.5156C36.3672 19.6875 36.3515 19.6093 36.0781 19.0547C35.8984 18.6953 35.625 18.3047 35.3828 18.0625C34.9765 17.6562 34.0312 17.1093 33.7343 17.1093C33.6484 17.1093 33.6093 17.0703 33.6328 17.0312C33.6562 16.9843 33.6718 16.9531 33.6562 16.9609C33.6406 16.9609 33.375 17.0468 33.0547 17.1562Z" fill="#ECECC1"/>
<path d="M6.05469 17.1719C5.11719 17.4922 4.31251 18.2188 3.88282 19.1172C3.66407 19.5938 3.63282 19.7344 3.60938 20.5156C3.57032 21.5547 3.74219 22.3672 4.18751 23.2734C4.67969 24.2656 5.76563 25.1562 6.50001 25.1562C6.91407 25.1562 7.69532 24.7344 8.13282 24.2812C8.62501 23.7734 9.15626 22.6953 9.33594 21.8516C9.42969 21.4219 9.46094 21.0078 9.43751 20.4453C9.40626 19.7578 9.36719 19.5781 9.16407 19.125C8.69532 18.1094 7.75782 17.3516 6.64063 17.0859C6.53126 17.0625 6.26563 17.1016 6.05469 17.1719Z" fill="#ECECC1"/>
<path d="M37.7783 25.4116L37.7783 25.4116L37.7798 25.4148L37.9986 25.8679L38.0232 25.9189L38.0234 25.9756L38.0469 31.9287L38.0469 31.929C38.0547 34.6074 38.0567 36.1007 38.0429 36.9377C38.0361 37.3545 38.0253 37.6171 38.0082 37.7844C38.005 37.8162 38.0014 37.8461 37.9972 37.8742C38.0614 37.8748 38.1372 37.875 38.2266 37.875C38.4681 37.875 38.6105 37.8698 38.6962 37.8585C38.6962 37.8562 38.6963 37.854 38.6964 37.8517C38.6992 37.7707 38.702 37.6541 38.7048 37.5051C38.7102 37.2073 38.7153 36.7842 38.7197 36.2664C38.7285 35.2311 38.7344 33.8198 38.7344 32.2812C38.7344 29.7527 38.7305 28.3479 38.712 27.535C38.6933 26.712 38.6588 26.5295 38.6172 26.4152C38.4066 25.8583 38.096 25.4546 37.6359 25.1633C37.6886 25.2454 37.7375 25.3301 37.7783 25.4116Z" fill="#8577B8" stroke="black" stroke-width="0.5"/>
<path d="M33.7891 29.125C33.7031 29.1406 32.5469 30.2422 31.2109 31.5625L31.3874 31.7396C31.3873 31.7397 31.3871 31.7399 31.387 31.74M33.7891 29.125L31.387 31.74M33.7891 29.125C34.2031 29.0469 34.4922 29.25 34.5781 29.6797L33.7891 29.125ZM31.387 31.74C32.0541 31.0807 32.6757 30.4766 33.1407 30.036C33.3735 29.8153 33.5657 29.6369 33.7043 29.5133C33.7739 29.4512 33.8277 29.405 33.8652 29.3748C33.8704 29.3706 33.875 29.3669 33.8792 29.3637C34.0121 29.3466 34.1022 29.3738 34.1629 29.4164C34.2315 29.4647 34.2989 29.5583 34.333 29.7287L34.3342 29.7348L34.3343 29.7348C34.3402 29.7611 34.3409 29.7695 34.341 29.7724C34.3409 29.7729 34.3406 29.7737 34.3402 29.775C34.3346 29.792 34.3116 29.8401 34.2174 29.954C34.0313 30.1792 33.6518 30.5649 32.8926 31.3319C32.0333 32.199 31.1251 33.1307 30.8726 33.399L30.8702 33.4016L30.8702 33.4016C30.6334 33.6606 30.2743 33.9427 30.0913 34.0342C29.9234 34.1182 29.8319 34.1541 29.6796 34.1752C29.5099 34.1987 29.2674 34.2031 28.7969 34.2031H28.7824C28.9191 34.1046 29.0762 33.9747 29.2808 33.7901C29.6964 33.415 30.3222 32.8009 31.387 31.74Z" fill="#8577B8" stroke="black" stroke-width="0.5"/>
<path d="M33.1719 31.4844C34.6953 29.961 34.8125 29.7735 34.4219 29.3282C34.2891 29.1641 34.1641 29.1094 33.9531 29.1094C33.6875 29.1094 33.5312 29.25 31.2344 31.5313C29.1953 33.5547 28.7109 33.9922 28.3203 34.1875L27.8516 34.4141L25.1797 34.4375C22.9289 34.4552 22.389 34.464 22.0149 34.2193C21.893 34.1395 21.7886 34.0328 21.6484 33.8907C21.2891 33.5313 21.1719 33.2188 21.1719 32.6172C21.1719 31.8204 21.5391 31.2422 22.25 30.9141L33.1719 31.4844ZM33.1719 31.4844L31.9531 32.6954L33.1719 31.4844ZM35.9637 24.9627L35.9624 24.9635C35.4982 25.2843 34.9972 25.471 34.424 25.53L34.0591 25.5677L31.4265 28.1927L31.4263 28.193L28.7309 30.8727L28.6586 30.9445L28.5567 30.9454L25.588 30.9688C25.588 30.9688 25.5879 30.9688 25.5879 30.9688C24.1506 30.9805 23.4129 30.9884 22.9893 31.0133C22.7784 31.0257 22.6574 31.0418 22.5723 31.0613C22.4923 31.0797 22.4375 31.1025 22.3557 31.1407L22.3548 31.1411C22.0361 31.2882 21.8067 31.4851 21.6555 31.7237C21.5043 31.9624 21.4219 32.258 21.4219 32.6172C21.4219 32.9036 21.4501 33.0985 21.5095 33.2571C21.5677 33.4125 21.6626 33.5512 21.8252 33.7139L21.8252 33.7139L21.8264 33.7151C21.9749 33.8657 22.0599 33.951 22.1564 34.0131C22.2439 34.0694 22.352 34.1127 22.5468 34.1426C22.9532 34.2051 23.649 34.1996 25.1082 34.1881L25.1775 34.1876L25.1777 34.1876L27.7933 34.1646L28.21 33.9632C28.3727 33.8816 28.5706 33.7427 28.9909 33.3601C29.411 32.9776 30.0381 32.3662 31.0583 31.3538C32.2038 30.2161 32.8233 29.6043 33.1891 29.2783C33.3705 29.1166 33.5041 29.0117 33.6178 28.9485C33.7473 28.8766 33.8497 28.8594 33.9531 28.8594C34.0796 28.8594 34.2029 28.8757 34.3214 28.9302C34.4392 28.9845 34.5315 29.0671 34.613 29.1669C34.7132 29.2816 34.8176 29.4188 34.851 29.5912C34.8871 29.7774 34.8325 29.9533 34.7306 30.128C34.6308 30.299 34.47 30.4957 34.249 30.7365C34.0258 30.9797 33.7293 31.2806 33.3487 31.6612L33.3481 31.6618L32.2031 32.7994V35.3125C32.2031 36.0297 32.2109 36.6937 32.2226 37.1845C32.2284 37.4302 32.2352 37.6311 32.2424 37.773C32.2435 37.7954 32.2446 37.8161 32.2457 37.835C32.3322 37.8436 32.4599 37.8506 32.6435 37.8556C33.0701 37.8672 33.7668 37.8672 34.8729 37.8594C36.0622 37.8477 36.7557 37.8379 37.16 37.8187C37.3261 37.8108 37.435 37.8016 37.5059 37.7916C37.5104 37.7228 37.5146 37.6288 37.5184 37.5091C37.5274 37.2322 37.5342 36.8293 37.5391 36.3102C37.5488 35.2726 37.5508 33.7777 37.5469 31.9146L37.5468 31.9053C37.5351 28.9641 37.5293 27.4868 37.506 26.6998C37.4943 26.3041 37.4784 26.0956 37.4578 25.9673C37.4396 25.8545 37.4192 25.8087 37.3843 25.7339C37.2314 25.4289 37.0757 25.2282 36.6829 24.8945C36.5876 24.8154 36.4905 24.7844 36.3858 24.7898C36.2747 24.7954 36.1338 24.8436 35.9637 24.9627ZM32.1385 37.8192C32.132 37.8165 32.1303 37.8167 32.1365 37.8186C32.1371 37.8188 32.1377 37.819 32.1385 37.8192Z" fill="#A18EE8" stroke="black" stroke-width="0.5"/>
<path d="M8.28125 27.5156C9.03906 28.2968 9.14062 28.3984 9.14062 28.3359C9.14062 28.3281 8.76562 27.9453 8.30469 27.4999L7.46094 26.6796L8.28125 27.5156Z" fill="#ECECEC"/>
<path d="M30.3516 28.8438L28.4766 30.7422L30.375 28.8672C32.1328 27.125 32.3047 26.9531 32.2422 26.9531C32.2344 26.9531 31.3828 27.8047 30.3516 28.8438Z" fill="#A18EE8"/>
</svg>
